<svg id="svg" version="1.1" xmlns="http://www.w3.org/2000/svg" xmlns:xlink="http://www.w3.org/1999/xlink" width="40" height="40" viewBox="0, 0, 400,400"><g id="svgg"><path id="path0" d="M191.980 0.075 C 191.933 0.121,190.840 0.210,189.551 0.271 C 184.588 0.509,179.688 0.899,176.758 1.290 C 175.768 1.422,175.395 1.465,173.730 1.645 C 173.086 1.714,172.163 1.852,171.680 1.952 C 171.196 2.052,170.449 2.180,170.020 2.236 C 167.316 2.594,166.343 2.742,165.592 2.908 C 165.127 3.011,164.087 3.199,163.281 3.327 C 162.476 3.454,161.553 3.636,161.230 3.731 C 160.908 3.826,160.381 3.941,160.059 3.987 C 158.745 4.174,151.816 5.736,151.172 5.991 C 151.011 6.054,150.703 6.134,150.488 6.167 C 150.175 6.216,146.199 7.254,145.410 7.492 C 145.303 7.525,144.819 7.659,144.336 7.791 C 143.853 7.924,143.105 8.149,142.676 8.292 C 142.246 8.435,141.367 8.706,140.723 8.893 C 140.078 9.081,139.375 9.306,139.160 9.393 C 138.945 9.481,138.066 9.768,137.207 10.030 C 136.348 10.293,135.051 10.729,134.326 10.998 C 133.601 11.268,133.008 11.435,133.008 11.369 C 133.008 11.304,132.902 11.355,132.773 11.484 C 132.645 11.613,132.381 11.719,132.188 11.719 C 131.994 11.719,131.836 11.807,131.836 11.914 C 131.836 12.021,131.682 12.111,131.494 12.112 C 131.082 12.116,129.657 12.600,128.885 12.999 C 128.577 13.159,128.277 13.281,128.219 13.270 C 128.032 13.237,125.308 14.297,124.854 14.579 C 124.612 14.730,124.414 14.805,124.414 14.747 C 124.414 14.689,123.975 14.865,123.438 15.137 C 122.900 15.409,122.461 15.577,122.461 15.511 C 122.461 15.445,122.148 15.576,121.766 15.801 C 121.384 16.026,120.987 16.211,120.883 16.211 C 120.695 16.211,117.922 17.482,116.558 18.194 C 116.158 18.403,115.782 18.564,115.722 18.552 C 115.552 18.518,109.118 21.707,108.789 21.988 C 108.628 22.125,108.408 22.260,108.301 22.287 C 107.748 22.427,107.031 22.758,107.031 22.873 C 107.031 22.945,106.790 23.065,106.496 23.139 C 106.202 23.213,105.916 23.332,105.861 23.404 C 105.807 23.476,104.927 23.964,103.906 24.488 C 102.886 25.012,101.919 25.555,101.757 25.695 C 101.596 25.835,101.245 26.045,100.976 26.161 C 100.708 26.278,100.225 26.548,99.902 26.761 C 99.580 26.975,99.053 27.284,98.730 27.448 C 98.408 27.612,97.881 27.920,97.559 28.131 C 97.236 28.342,96.731 28.611,96.436 28.729 C 96.140 28.848,95.936 29.005,95.982 29.079 C 96.028 29.153,95.786 29.335,95.445 29.482 C 94.828 29.749,94.370 30.034,92.051 31.603 C 91.384 32.053,90.747 32.422,90.635 32.422 C 90.522 32.422,90.430 32.510,90.430 32.617 C 90.430 32.725,90.337 32.813,90.224 32.813 C 90.051 32.813,88.049 34.089,87.402 34.611 C 87.220 34.759,86.504 35.265,83.129 37.632 C 82.391 38.150,81.646 38.728,81.475 38.916 C 81.303 39.104,81.063 39.258,80.941 39.258 C 80.819 39.258,80.333 39.593,79.861 40.004 C 79.390 40.414,78.608 41.023,78.125 41.356 C 77.642 41.690,77.004 42.193,76.709 42.474 C 76.414 42.755,76.172 42.924,76.172 42.850 C 76.172 42.777,75.972 42.927,75.728 43.184 C 75.483 43.442,75.028 43.828,74.716 44.043 C 74.404 44.258,73.962 44.609,73.733 44.824 C 73.504 45.039,72.973 45.475,72.554 45.794 C 72.134 46.112,71.653 46.508,71.483 46.673 C 71.314 46.838,70.784 47.292,70.305 47.682 C 69.826 48.072,69.165 48.643,68.836 48.951 C 68.253 49.499,67.615 50.073,64.667 52.710 C 63.871 53.422,62.496 54.707,61.611 55.566 C 60.726 56.426,59.619 57.490,59.151 57.932 C 57.920 59.096,53.696 63.459,53.741 63.521 C 53.762 63.550,53.346 64.015,52.817 64.554 C 52.288 65.093,51.196 66.278,50.391 67.186 C 49.585 68.095,48.808 68.964,48.664 69.118 C 48.521 69.272,48.049 69.868,47.616 70.441 C 47.182 71.015,46.736 71.484,46.624 71.484 C 46.511 71.484,46.467 71.532,46.526 71.591 C 46.584 71.649,46.401 71.939,46.119 72.235 C 45.836 72.531,45.298 73.162,44.922 73.637 C 44.546 74.112,43.887 74.913,43.457 75.417 C 43.027 75.922,42.369 76.760,41.993 77.279 C 41.618 77.798,41.264 78.267,41.207 78.320 C 41.105 78.416,40.482 79.249,37.434 83.373 C 36.611 84.486,35.938 85.475,35.938 85.570 C 35.938 85.665,35.784 85.912,35.596 86.119 C 34.979 86.799,34.762 87.094,34.330 87.839 C 34.096 88.243,33.845 88.618,33.772 88.672 C 33.597 88.802,30.502 93.587,29.793 94.824 C 29.485 95.361,29.180 95.845,29.114 95.898 C 29.049 95.952,28.889 96.216,28.757 96.484 C 28.478 97.056,28.074 97.713,27.917 97.852 C 27.781 97.971,26.651 99.971,24.582 103.751 C 23.953 104.901,23.438 105.934,23.438 106.046 C 23.438 106.158,23.350 106.250,23.242 106.250 C 23.135 106.250,23.047 106.418,23.047 106.624 C 23.047 106.830,22.971 107.028,22.879 107.064 C 22.662 107.148,19.325 113.866,19.498 113.870 C 19.570 113.872,19.529 113.938,19.407 114.017 C 19.218 114.138,18.630 115.323,18.608 115.625 C 18.605 115.679,18.381 116.118,18.111 116.602 C 17.841 117.085,17.615 117.524,17.610 117.578 C 17.604 117.632,17.446 118.027,17.259 118.457 C 17.071 118.887,16.907 119.282,16.892 119.336 C 16.878 119.390,16.539 120.133,16.140 120.988 C 15.741 121.843,15.391 122.678,15.363 122.843 C 15.334 123.009,15.159 123.430,14.974 123.779 C 14.790 124.128,14.685 124.414,14.741 124.414 C 14.798 124.414,14.669 124.742,14.454 125.144 C 14.238 125.545,14.062 125.944,14.063 126.031 C 14.063 126.117,13.608 127.344,13.053 128.756 C 12.498 130.169,12.044 131.440,12.044 131.580 C 12.044 131.721,11.971 131.836,11.882 131.836 C 11.792 131.836,11.719 131.994,11.719 132.188 C 11.719 132.381,11.644 132.623,11.552 132.725 C 11.420 132.872,10.888 134.535,10.838 134.961 C 10.831 135.015,10.725 135.240,10.601 135.461 C 10.478 135.683,10.109 136.765,9.782 137.866 C 9.455 138.968,9.146 139.935,9.096 140.016 C 9.046 140.098,8.965 140.378,8.915 140.639 C 8.866 140.900,8.546 141.982,8.204 143.045 C 7.862 144.107,7.541 145.199,7.491 145.472 C 7.442 145.745,7.365 146.028,7.320 146.100 C 7.065 146.514,4.815 155.656,4.583 157.227 C 4.472 157.972,4.395 158.282,4.265 158.496 C 4.162 158.666,4.027 159.330,3.786 160.840 C 3.752 161.055,3.642 161.582,3.541 162.012 C 3.440 162.441,3.310 163.188,3.253 163.672 C 3.196 164.155,3.018 165.166,2.859 165.918 C 2.605 167.114,2.220 169.611,2.061 171.094 C 2.033 171.362,1.960 171.714,1.900 171.875 C 1.839 172.036,1.692 173.105,1.572 174.250 C 1.452 175.396,1.318 176.626,1.274 176.985 C 0.998 179.254,0.585 183.505,0.586 184.082 C 0.586 184.297,0.542 185.088,0.489 185.840 C 0.436 186.592,0.328 188.130,0.248 189.258 C -0.050 193.496,0.107 210.040,0.488 214.648 C 0.651 216.616,0.912 219.421,1.060 220.801 C 1.106 221.230,1.197 222.320,1.262 223.223 C 1.327 224.125,1.436 224.954,1.505 225.065 C 1.574 225.176,1.652 225.624,1.679 226.061 C 1.746 227.140,2.356 231.472,2.491 231.836 C 2.551 231.997,2.581 232.248,2.557 232.393 C 2.532 232.538,2.573 232.802,2.647 232.979 C 2.722 233.156,2.815 233.696,2.856 234.180 C 2.897 234.663,2.981 235.190,3.042 235.352 C 3.104 235.513,3.195 235.996,3.243 236.426 C 3.292 236.855,3.386 237.339,3.451 237.500 C 3.516 237.661,3.591 237.925,3.616 238.086 C 3.642 238.247,3.728 238.687,3.807 239.063 C 3.885 239.438,3.987 239.966,4.031 240.234 C 4.261 241.621,4.499 242.848,4.605 243.197 C 4.659 243.377,4.743 243.728,4.791 243.979 C 4.839 244.229,5.064 245.181,5.290 246.094 C 5.516 247.007,5.741 247.974,5.789 248.242 C 5.837 248.511,6.081 249.434,6.332 250.293 C 6.583 251.152,6.898 252.339,7.032 252.930 C 7.167 253.521,7.364 254.114,7.471 254.248 C 7.578 254.382,7.600 254.492,7.520 254.492 C 7.440 254.492,7.472 254.610,7.592 254.754 C 7.711 254.898,7.766 255.060,7.712 255.113 C 7.659 255.167,7.697 255.466,7.797 255.779 C 7.897 256.092,8.165 257.007,8.394 257.813 C 8.623 258.618,8.879 259.409,8.964 259.570 C 9.050 259.731,9.230 260.325,9.364 260.889 C 9.499 261.453,9.694 261.914,9.797 261.914 C 9.900 261.914,9.934 261.995,9.873 262.093 C 9.813 262.191,9.866 262.521,9.992 262.825 C 10.118 263.130,10.236 263.423,10.254 263.477 C 10.273 263.530,10.336 263.706,10.395 263.867 C 10.454 264.028,10.601 264.526,10.722 264.972 C 10.843 265.419,11.090 266.122,11.270 266.535 C 11.450 266.947,11.606 267.329,11.616 267.383 C 11.626 267.437,11.739 267.667,11.865 267.894 C 11.992 268.122,12.042 268.361,11.977 268.427 C 11.912 268.492,11.970 268.679,12.105 268.843 C 12.241 269.007,12.304 269.141,12.245 269.141 C 12.152 269.141,12.454 269.954,13.334 272.070 C 13.445 272.339,13.562 272.687,13.593 272.843 C 13.624 273.000,13.739 273.307,13.849 273.527 C 14.425 274.674,14.991 276.155,14.891 276.254 C 14.829 276.316,14.867 276.367,14.974 276.367 C 15.081 276.367,15.172 276.477,15.175 276.611 C 15.178 276.746,15.413 277.355,15.696 277.966 C 15.979 278.577,16.211 279.118,16.211 279.169 C 16.211 279.220,16.537 279.951,16.936 280.793 C 17.335 281.635,17.669 282.368,17.677 282.422 C 17.685 282.476,17.842 282.801,18.026 283.145 C 18.209 283.488,18.359 283.870,18.359 283.993 C 18.359 284.116,18.541 284.472,18.763 284.784 C 18.985 285.096,19.118 285.352,19.058 285.352 C 18.901 285.352,22.110 291.671,22.354 291.843 C 22.466 291.922,22.492 291.988,22.412 291.989 C 22.261 291.992,23.622 294.742,23.865 294.926 C 23.938 294.982,24.177 295.443,24.395 295.951 C 24.613 296.459,24.882 296.875,24.993 296.875 C 25.104 296.875,25.195 297.042,25.195 297.246 C 25.195 297.450,25.512 298.087,25.900 298.662 C 26.287 299.237,26.870 300.234,27.194 300.879 C 27.519 301.523,27.849 302.095,27.927 302.148 C 28.006 302.202,28.284 302.642,28.546 303.125 C 28.981 303.929,30.447 306.271,30.807 306.738 C 30.889 306.846,31.089 307.193,31.250 307.510 C 31.411 307.827,31.873 308.528,32.275 309.067 C 32.678 309.607,33.008 310.160,33.008 310.297 C 33.008 310.435,33.087 310.547,33.184 310.547 C 33.336 310.547,34.063 311.576,34.371 312.227 C 34.638 312.792,36.023 314.648,36.177 314.648 C 36.273 314.648,36.309 314.717,36.257 314.800 C 36.206 314.884,36.336 315.170,36.547 315.435 C 36.758 315.701,37.293 316.445,37.738 317.090 C 38.182 317.734,38.601 318.306,38.670 318.359 C 38.804 318.464,40.529 320.763,41.016 321.485 C 41.177 321.724,41.592 322.239,41.939 322.630 C 42.285 323.020,42.571 323.392,42.574 323.456 C 42.576 323.521,42.732 323.757,42.920 323.982 C 43.108 324.207,43.569 324.762,43.945 325.216 C 44.321 325.670,44.770 326.180,44.942 326.351 C 45.114 326.521,45.334 326.803,45.430 326.977 C 45.527 327.151,46.045 327.798,46.582 328.415 C 47.119 329.031,48.248 330.339,49.091 331.321 C 49.934 332.302,50.840 333.303,51.104 333.545 C 51.368 333.787,51.549 333.984,51.505 333.984 C 51.329 333.984,53.658 336.446,57.995 340.843 C 60.513 343.395,62.622 345.471,62.683 345.455 C 62.743 345.440,63.364 345.977,64.063 346.649 C 66.749 349.233,67.143 349.590,69.820 351.855 C 70.328 352.285,70.943 352.813,71.187 353.027 C 71.829 353.594,72.719 354.323,73.450 354.883 C 73.801 355.151,74.293 355.582,74.544 355.839 C 74.795 356.096,75.000 356.237,75.000 356.150 C 75.000 356.064,75.201 356.227,75.446 356.513 C 75.691 356.798,75.981 357.031,76.091 357.031 C 76.201 357.031,76.589 357.339,76.953 357.715 C 77.318 358.091,77.723 358.398,77.854 358.398 C 77.985 358.398,78.122 358.472,78.158 358.561 C 78.193 358.651,78.926 359.240,79.785 359.871 C 80.645 360.501,81.464 361.131,81.606 361.270 C 81.748 361.410,81.923 361.524,81.996 361.524 C 82.111 361.524,82.533 361.844,83.537 362.691 C 83.666 362.801,83.827 362.891,83.892 362.891 C 83.958 362.891,84.127 363.000,84.267 363.135 C 84.408 363.269,84.719 363.511,84.960 363.672 C 85.200 363.833,85.598 364.119,85.844 364.307 C 86.091 364.495,86.388 364.648,86.505 364.648 C 86.623 364.648,86.719 364.735,86.719 364.840 C 86.719 364.945,86.932 365.085,87.193 365.151 C 87.454 365.216,87.713 365.389,87.769 365.535 C 87.825 365.681,88.148 365.943,88.488 366.119 C 88.827 366.294,89.632 366.826,90.277 367.301 C 90.922 367.776,91.539 368.164,91.649 368.164 C 91.758 368.164,92.276 368.472,92.799 368.848 C 93.323 369.224,93.801 369.531,93.861 369.531 C 93.922 369.531,94.259 369.751,94.612 370.020 C 94.964 370.288,95.311 370.508,95.384 370.508 C 95.456 370.508,95.887 370.747,96.342 371.040 C 96.796 371.333,97.344 371.669,97.559 371.787 C 98.428 372.264,98.931 372.564,99.023 372.660 C 99.077 372.716,99.341 372.871,99.609 373.004 C 99.878 373.137,100.405 373.433,100.781 373.662 C 102.135 374.486,105.331 376.249,106.836 377.002 C 107.319 377.243,107.759 377.497,107.813 377.565 C 107.901 377.678,108.808 378.121,113.507 380.347 C 114.329 380.736,115.098 381.055,115.216 381.055 C 115.333 381.055,115.430 381.143,115.430 381.250 C 115.430 381.357,115.541 381.445,115.677 381.445 C 115.813 381.445,116.494 381.718,117.190 382.052 C 118.627 382.740,120.370 383.537,121.094 383.837 C 121.362 383.948,121.846 384.149,122.168 384.284 C 123.722 384.934,124.404 385.193,124.756 385.266 C 124.891 385.294,125.374 385.489,125.830 385.700 C 127.821 386.617,128.523 386.914,128.702 386.914 C 128.807 386.914,129.182 387.039,129.534 387.193 C 130.152 387.461,130.742 387.688,131.152 387.815 C 132.024 388.084,133.800 388.729,134.277 388.951 C 134.600 389.100,135.258 389.328,135.741 389.456 C 136.224 389.584,136.796 389.739,137.011 389.799 C 141.345 391.014,147.630 388.762,149.194 385.434 C 149.341 385.120,149.588 384.622,149.742 384.326 C 149.896 384.031,149.962 383.789,149.889 383.789 C 149.817 383.789,149.847 383.679,149.958 383.545 C 150.492 382.897,150.583 380.817,150.478 371.694 C 150.419 366.584,150.358 358.030,150.343 352.686 C 150.328 347.341,150.296 342.969,150.271 342.969 C 150.246 342.969,149.186 343.142,147.916 343.353 C 145.559 343.745,140.568 344.405,138.281 344.627 C 137.583 344.695,136.616 344.796,136.133 344.852 C 132.845 345.233,122.586 345.220,119.727 344.832 C 119.351 344.780,118.560 344.690,117.969 344.631 C 117.378 344.572,116.455 344.436,115.918 344.329 C 115.381 344.222,114.658 344.098,114.311 344.054 C 113.759 343.985,112.439 343.731,111.230 343.462 C 111.016 343.415,110.049 343.144,109.082 342.860 C 108.115 342.577,107.192 342.324,107.031 342.298 C 106.870 342.273,106.398 342.105,105.982 341.927 C 105.566 341.748,105.184 341.602,105.133 341.602 C 105.047 341.602,104.724 341.468,103.027 340.733 C 102.280 340.409,99.634 339.109,99.121 338.815 C 98.171 338.268,96.576 337.194,96.517 337.061 C 96.481 336.980,96.367 336.914,96.262 336.914 C 96.077 336.914,93.677 335.068,92.841 334.282 C 92.609 334.065,91.928 333.425,91.327 332.861 C 90.726 332.297,90.234 331.784,90.234 331.721 C 90.234 331.659,89.927 331.309,89.551 330.944 C 89.175 330.579,88.867 330.212,88.867 330.128 C 88.867 330.045,88.665 329.758,88.418 329.490 C 88.171 329.223,87.759 328.630,87.503 328.174 C 87.247 327.717,86.966 327.344,86.878 327.344 C 86.790 327.344,86.719 327.252,86.719 327.140 C 86.719 327.028,86.546 326.751,86.335 326.525 C 86.124 326.298,85.997 326.038,86.053 325.947 C 86.110 325.856,86.063 325.781,85.949 325.781 C 85.835 325.781,85.742 325.649,85.742 325.488 C 85.742 325.327,85.640 325.195,85.514 325.195 C 85.389 325.195,85.342 325.139,85.411 325.071 C 85.479 325.002,85.354 324.692,85.132 324.380 C 84.910 324.069,84.709 323.707,84.684 323.577 C 84.660 323.447,84.484 322.988,84.295 322.559 C 83.909 321.684,83.564 320.824,83.571 320.756 C 83.574 320.731,83.350 320.204,83.075 319.584 C 82.516 318.325,82.199 317.529,82.199 317.383 C 82.199 317.329,82.091 317.153,81.960 316.992 C 81.829 316.831,81.615 316.458,81.486 316.162 C 80.944 314.927,80.720 314.478,79.909 312.990 C 79.440 312.130,78.978 311.396,78.882 311.360 C 78.787 311.324,78.754 311.221,78.809 311.132 C 78.865 311.042,78.774 310.833,78.608 310.667 C 78.442 310.501,78.311 310.296,78.316 310.212 C 78.335 309.928,74.456 303.848,74.190 303.743 C 74.098 303.708,74.023 303.551,74.023 303.396 C 74.023 303.240,73.892 303.062,73.730 303.000 C 73.569 302.938,73.437 302.782,73.437 302.653 C 73.438 302.523,73.258 302.225,73.039 301.990 C 72.820 301.755,72.688 301.562,72.746 301.563 C 72.804 301.563,72.676 301.365,72.461 301.123 C 71.684 300.249,71.486 300.000,71.567 300.000 C 71.819 300.000,68.284 295.988,66.617 294.381 C 65.239 293.053,61.410 290.317,60.956 290.337 C 60.892 290.340,60.635 290.164,60.385 289.946 C 60.134 289.729,59.846 289.551,59.743 289.551 C 59.640 289.551,59.493 289.457,59.417 289.343 C 59.340 289.228,58.838 288.836,58.301 288.472 C 56.106 286.985,53.943 284.463,53.347 282.696 L 52.958 281.545 53.383 280.763 C 54.018 279.595,54.952 279.038,57.031 278.588 C 57.407 278.507,57.759 278.429,57.813 278.415 C 59.434 278.000,64.955 277.979,66.797 278.381 C 66.958 278.416,67.727 278.562,68.506 278.707 C 69.285 278.851,69.922 279.037,69.922 279.121 C 69.922 279.204,70.082 279.261,70.277 279.246 C 70.473 279.231,70.960 279.374,71.359 279.564 C 71.758 279.753,72.235 279.939,72.419 279.976 C 72.712 280.036,75.568 281.465,76.953 282.245 C 77.380 282.485,79.433 283.822,79.980 284.216 C 83.621 286.835,88.610 292.105,91.743 296.640 C 91.987 296.993,92.188 297.309,92.188 297.341 C 92.188 297.447,94.699 301.252,95.940 303.025 C 97.070 304.640,97.836 305.565,99.274 307.054 C 99.573 307.364,99.765 307.617,99.700 307.617 C 99.635 307.617,99.713 307.749,99.874 307.910 C 100.036 308.071,100.262 308.203,100.377 308.203 C 100.492 308.203,100.586 308.315,100.586 308.453 C 100.586 308.590,100.762 308.853,100.977 309.037 C 101.191 309.221,101.367 309.342,101.367 309.306 C 101.367 309.271,101.796 309.645,102.321 310.138 C 102.845 310.632,103.602 311.299,104.003 311.621 C 104.403 311.943,104.875 312.349,105.051 312.522 C 105.464 312.930,108.984 315.249,108.984 315.113 C 108.984 315.057,109.215 315.192,109.497 315.414 C 109.953 315.773,113.073 317.346,113.574 317.471 C 113.858 317.541,114.459 317.775,115.188 318.098 C 115.538 318.253,115.904 318.331,116.001 318.271 C 116.098 318.211,116.207 318.232,116.243 318.318 C 116.310 318.478,119.133 319.297,120.084 319.433 C 120.371 319.474,121.034 319.591,121.557 319.694 C 122.080 319.796,122.652 319.857,122.827 319.829 C 123.001 319.800,123.293 319.854,123.474 319.947 C 123.973 320.205,129.903 320.303,132.227 320.092 C 133.354 319.989,134.717 319.864,135.254 319.814 C 135.791 319.764,136.494 319.642,136.816 319.543 C 137.139 319.443,137.754 319.317,138.184 319.262 C 140.111 319.015,145.523 317.482,145.671 317.141 C 145.707 317.058,145.815 317.038,145.911 317.098 C 146.007 317.157,146.285 317.095,146.529 316.959 C 146.773 316.824,147.017 316.706,147.070 316.698 C 148.265 316.515,151.233 315.121,151.307 314.707 C 151.341 314.514,151.422 314.004,151.486 313.574 C 151.550 313.145,151.682 312.397,151.781 311.914 C 151.879 311.431,151.993 310.859,152.032 310.645 C 152.272 309.349,152.381 308.906,152.756 307.693 C 152.985 306.953,153.186 306.260,153.203 306.152 C 153.220 306.045,153.287 305.869,153.352 305.762 C 153.417 305.654,153.535 305.262,153.615 304.889 C 153.695 304.517,153.830 304.077,153.914 303.913 C 153.998 303.748,154.218 303.174,154.403 302.637 C 155.370 299.827,158.719 293.887,160.253 292.261 C 160.468 292.033,160.808 291.619,161.007 291.342 C 161.207 291.064,161.942 290.268,162.641 289.573 L 163.912 288.308 163.157 288.119 C 162.742 288.015,162.271 287.934,162.109 287.938 C 161.740 287.950,159.026 287.623,157.617 287.398 C 157.241 287.338,156.626 287.244,156.250 287.189 C 155.874 287.134,155.083 287.008,154.492 286.910 C 152.475 286.573,152.245 286.538,151.367 286.430 C 150.884 286.370,150.341 286.275,150.162 286.219 C 149.711 286.077,149.049 285.944,148.242 285.834 C 147.866 285.783,146.614 285.533,145.459 285.279 C 144.304 285.026,143.359 284.853,143.359 284.896 C 143.359 284.939,143.206 284.893,143.018 284.792 C 142.830 284.692,142.358 284.559,141.970 284.498 C 141.582 284.436,141.033 284.297,140.749 284.190 C 140.466 284.082,140.234 284.039,140.234 284.094 C 140.234 284.149,140.081 284.111,139.893 284.011 C 139.705 283.910,139.287 283.782,138.965 283.726 C 138.643 283.670,137.961 283.494,137.451 283.335 C 136.941 283.176,136.523 283.092,136.523 283.148 C 136.523 283.205,136.414 283.161,136.279 283.052 C 136.145 282.943,135.728 282.811,135.352 282.759 C 134.976 282.707,134.448 282.574,134.180 282.464 C 133.911 282.354,132.944 282.029,132.031 281.742 C 131.118 281.455,130.239 281.168,130.078 281.105 C 129.917 281.042,129.741 280.982,129.688 280.972 C 129.557 280.947,127.738 280.285,127.246 280.083 C 127.031 279.994,126.548 279.812,126.172 279.677 C 123.577 278.746,115.816 275.219,115.430 274.795 C 115.376 274.736,114.717 274.385,113.965 274.014 C 113.213 273.643,112.567 273.271,112.531 273.187 C 112.494 273.104,112.020 272.796,111.478 272.504 C 110.357 271.899,110.287 271.857,108.691 270.797 C 108.047 270.370,107.349 269.866,107.141 269.678 C 106.933 269.490,106.706 269.336,106.638 269.336 C 106.570 269.336,106.029 268.962,105.438 268.506 C 104.846 268.049,104.066 267.456,103.705 267.188 C 102.174 266.050,97.468 261.768,96.406 260.547 C 96.079 260.171,95.381 259.424,94.854 258.887 C 94.327 258.350,93.666 257.603,93.384 257.227 C 93.102 256.851,92.783 256.443,92.676 256.322 C 91.088 254.524,88.100 250.261,86.465 247.461 C 84.596 244.261,84.363 243.842,84.056 243.115 C 83.886 242.712,83.668 242.383,83.573 242.383 C 83.477 242.383,83.420 242.312,83.447 242.226 C 83.474 242.139,83.351 241.766,83.175 241.396 C 81.941 238.812,81.641 238.133,81.641 237.928 C 81.641 237.800,81.555 237.695,81.451 237.695 C 81.347 237.695,81.313 237.563,81.375 237.402 C 81.437 237.241,81.390 237.109,81.271 237.109 C 81.152 237.109,81.055 236.976,81.055 236.814 C 81.055 236.651,80.972 236.366,80.871 236.179 C 80.575 235.635,78.792 230.514,78.303 228.809 C 78.058 227.949,77.774 227.136,77.674 227.002 C 77.573 226.868,77.540 226.758,77.600 226.758 C 77.659 226.758,77.491 225.989,77.225 225.049 C 76.694 223.170,76.608 222.830,76.454 221.989 C 76.397 221.676,76.311 221.357,76.264 221.279 C 76.216 221.202,76.130 220.799,76.072 220.384 C 76.015 219.969,75.885 219.277,75.785 218.848 C 75.399 217.202,74.726 213.272,74.513 211.426 C 74.475 211.104,74.398 210.532,74.340 210.156 C 73.814 206.733,73.565 203.708,73.143 195.605 C 72.912 191.175,73.095 184.206,73.542 180.371 C 73.580 180.049,73.671 179.214,73.744 178.516 C 73.876 177.254,73.926 176.913,74.116 175.977 C 74.170 175.708,74.260 175.103,74.316 174.632 C 74.372 174.160,74.540 173.281,74.689 172.678 C 74.937 171.679,75.230 170.314,75.302 169.824 C 75.318 169.717,75.393 169.487,75.469 169.314 C 75.545 169.141,75.634 168.790,75.668 168.533 C 75.702 168.276,75.783 167.935,75.849 167.773 C 75.957 167.507,76.359 166.070,76.668 164.844 C 76.805 164.296,76.949 163.909,77.414 162.835 C 77.590 162.429,77.734 161.984,77.734 161.846 C 77.734 161.709,77.911 161.231,78.127 160.784 C 78.343 160.338,78.500 159.904,78.476 159.820 C 78.452 159.736,78.531 159.492,78.650 159.277 C 78.770 159.063,78.880 158.823,78.895 158.744 C 78.940 158.513,80.059 156.051,80.678 154.821 C 80.993 154.196,81.250 153.601,81.250 153.498 C 81.250 153.396,81.486 152.941,81.775 152.486 C 82.064 152.032,82.551 151.177,82.857 150.586 C 83.874 148.622,86.307 144.781,87.063 143.945 C 87.306 143.677,87.556 143.294,87.620 143.094 C 87.735 142.730,88.019 142.358,89.209 141.006 C 89.558 140.609,89.844 140.223,89.844 140.148 C 89.844 140.073,89.954 139.899,90.088 139.763 C 90.222 139.626,90.684 139.096,91.113 138.586 C 91.543 138.076,92.070 137.460,92.285 137.218 C 92.500 136.976,92.879 136.538,93.127 136.245 L 93.578 135.712 93.189 134.965 C 92.975 134.554,92.841 134.177,92.891 134.127 C 92.941 134.077,92.811 133.563,92.601 132.985 C 92.272 132.076,91.642 129.992,91.516 129.395 C 91.462 129.139,90.953 126.898,90.906 126.709 C 90.886 126.628,90.851 126.541,90.830 126.514 C 90.764 126.432,90.631 125.728,90.520 124.874 C 90.462 124.428,90.376 123.860,90.328 123.612 C 89.820 120.976,89.594 117.507,89.605 112.500 C 89.612 108.605,89.664 107.375,89.935 104.688 C 90.035 103.696,90.596 100.065,90.826 98.926 C 90.934 98.389,91.060 97.686,91.107 97.363 C 91.181 96.843,91.459 95.640,91.919 93.848 C 92.001 93.525,92.078 93.174,92.089 93.066 C 92.101 92.959,92.258 92.432,92.438 91.895 C 92.619 91.357,92.799 90.742,92.838 90.527 C 92.877 90.313,93.004 89.906,93.120 89.624 C 93.349 89.067,93.818 87.522,93.853 87.207 C 93.866 87.100,94.023 86.671,94.203 86.255 C 94.384 85.839,94.531 85.396,94.531 85.269 C 94.531 85.143,94.617 84.954,94.721 84.849 C 94.825 84.745,94.944 84.486,94.984 84.273 C 95.104 83.641,95.468 82.860,95.712 82.709 C 96.391 82.290,103.773 82.294,104.920 82.714 C 105.061 82.766,105.791 82.904,106.543 83.022 C 107.295 83.140,108.130 83.272,108.398 83.316 C 110.219 83.612,112.442 84.247,117.383 85.879 C 117.866 86.038,118.480 86.210,118.746 86.261 C 119.012 86.311,119.276 86.422,119.332 86.507 C 119.388 86.592,119.917 86.818,120.508 87.010 C 121.099 87.202,121.989 87.562,122.486 87.811 C 122.983 88.060,123.445 88.209,123.511 88.142 C 123.578 88.075,123.633 88.123,123.633 88.249 C 123.633 88.374,123.699 88.462,123.779 88.445 C 123.959 88.405,125.512 89.079,126.956 89.823 C 127.548 90.129,128.316 90.441,128.663 90.517 C 129.009 90.593,129.340 90.732,129.398 90.826 C 129.456 90.920,130.270 91.383,131.207 91.855 C 134.189 93.358,135.447 94.022,135.547 94.146 C 135.681 94.311,136.392 94.600,136.572 94.562 C 136.653 94.545,136.719 94.624,136.719 94.738 C 136.719 94.852,136.797 94.897,136.892 94.838 C 136.987 94.779,137.178 94.867,137.316 95.033 C 137.454 95.199,137.837 95.462,138.168 95.617 C 138.499 95.772,139.187 96.160,139.697 96.479 C 140.208 96.798,140.626 96.996,140.628 96.918 C 140.630 96.841,140.696 96.869,140.774 96.980 C 140.895 97.151,141.754 97.709,144.438 99.359 C 144.650 99.490,145.308 99.881,145.898 100.228 C 146.489 100.576,147.080 100.965,147.212 101.094 C 147.343 101.223,147.782 101.529,148.188 101.774 C 148.594 102.019,149.260 102.478,149.669 102.795 L 150.413 103.371 151.818 102.963 C 152.992 102.623,154.226 102.296,156.055 101.842 C 157.638 101.448,158.161 101.322,158.496 101.252 C 158.711 101.207,159.414 101.035,160.059 100.869 C 160.703 100.702,161.362 100.561,161.523 100.555 C 161.685 100.548,162.212 100.457,162.695 100.353 C 163.179 100.248,163.735 100.130,163.932 100.090 C 164.128 100.049,164.436 99.975,164.615 99.923 C 164.795 99.872,165.381 99.776,165.918 99.709 C 166.455 99.642,167.290 99.493,167.773 99.377 C 168.257 99.262,168.916 99.140,169.238 99.107 C 169.561 99.074,170.439 98.946,171.191 98.823 C 173.841 98.388,173.318 98.458,180.566 97.568 C 180.996 97.515,181.875 97.429,182.520 97.378 C 183.164 97.326,184.219 97.237,184.863 97.180 C 189.373 96.780,194.075 96.611,200.684 96.609 C 207.033 96.608,210.998 96.753,216.309 97.183 C 216.953 97.235,218.008 97.314,218.652 97.359 C 219.297 97.403,220.220 97.500,220.703 97.574 C 221.187 97.648,221.846 97.732,222.168 97.759 C 222.490 97.787,223.149 97.871,223.633 97.945 C 224.116 98.020,224.863 98.113,225.293 98.152 C 226.181 98.232,226.325 98.253,230.670 98.933 C 232.420 99.206,233.905 99.462,233.968 99.501 C 234.030 99.540,234.521 99.622,235.059 99.683 C 235.596 99.745,236.519 99.921,237.109 100.075 C 237.700 100.229,238.491 100.406,238.867 100.467 C 239.243 100.529,239.749 100.624,239.990 100.680 C 241.083 100.932,241.345 100.987,241.895 101.081 C 242.217 101.136,242.920 101.305,243.457 101.456 C 243.994 101.608,245.005 101.872,245.703 102.044 C 246.401 102.215,247.148 102.406,247.363 102.469 C 247.578 102.531,247.930 102.605,248.145 102.633 C 248.359 102.660,248.781 102.782,249.081 102.903 C 250.337 103.408,250.416 103.386,252.514 101.961 C 253.629 101.205,254.613 100.586,254.702 100.586 C 254.791 100.586,254.942 100.446,255.037 100.275 C 255.133 100.105,255.269 99.973,255.340 99.983 C 255.733 100.036,255.869 99.979,255.762 99.805 C 255.695 99.697,255.756 99.609,255.897 99.608 C 256.037 99.606,256.705 99.255,257.381 98.826 C 258.057 98.398,258.681 98.047,258.768 98.047 C 258.856 98.047,259.144 97.849,259.409 97.607 C 259.674 97.366,260.481 96.860,261.203 96.484 C 261.925 96.108,262.684 95.647,262.890 95.459 C 263.096 95.271,263.387 95.117,263.536 95.117 C 263.685 95.117,263.966 94.941,264.161 94.725 C 264.356 94.510,264.552 94.370,264.596 94.414 C 264.640 94.458,265.219 94.187,265.883 93.812 C 266.547 93.437,267.529 92.913,268.066 92.647 C 268.604 92.382,269.307 91.996,269.629 91.789 C 270.246 91.393,272.232 90.430,272.431 90.430 C 272.495 90.430,273.166 90.131,273.921 89.765 C 275.211 89.140,276.120 88.724,277.734 88.023 C 278.110 87.859,279.253 87.404,280.273 87.011 C 281.294 86.618,282.461 86.157,282.868 85.986 C 283.274 85.816,283.736 85.677,283.893 85.677 C 284.051 85.677,284.180 85.589,284.180 85.482 C 284.180 85.374,284.233 85.339,284.297 85.404 C 284.362 85.469,284.648 85.432,284.932 85.322 C 286.566 84.690,290.784 83.588,293.457 83.094 C 295.085 82.794,295.426 82.742,297.363 82.503 C 299.667 82.219,304.535 82.403,305.245 82.800 C 305.530 82.960,306.671 85.796,307.450 88.281 C 307.669 88.979,308.025 90.078,308.241 90.723 C 308.457 91.367,308.662 92.070,308.696 92.285 C 308.731 92.500,308.944 93.379,309.169 94.238 C 309.394 95.098,309.614 95.977,309.658 96.191 C 309.701 96.406,309.795 96.846,309.867 97.168 C 309.938 97.490,310.022 97.930,310.054 98.145 C 310.235 99.362,310.563 101.186,310.641 101.405 C 310.739 101.682,311.082 104.828,311.287 107.324 C 311.458 109.417,311.439 116.943,311.257 118.652 C 311.177 119.404,311.076 120.371,311.033 120.801 C 310.859 122.517,310.368 125.612,310.074 126.855 C 309.133 130.829,308.130 134.225,307.582 135.300 C 307.387 135.681,307.438 135.812,307.976 136.327 C 308.316 136.652,308.594 136.963,308.594 137.019 C 308.594 137.074,308.851 137.403,309.165 137.749 C 309.479 138.096,309.897 138.577,310.093 138.819 C 310.289 139.061,310.669 139.531,310.938 139.863 C 311.206 140.195,311.629 140.700,311.877 140.985 C 312.125 141.271,313.037 142.559,313.904 143.848 C 314.771 145.137,315.645 146.373,315.846 146.595 C 316.047 146.816,316.211 147.057,316.211 147.129 C 316.211 147.333,317.447 149.309,317.620 149.382 C 317.706 149.418,317.726 149.528,317.665 149.626 C 317.605 149.724,317.663 149.805,317.794 149.805 C 317.926 149.805,317.983 149.855,317.921 149.917 C 317.859 149.979,318.246 150.788,318.781 151.714 C 319.611 153.151,320.310 154.521,320.399 154.883 C 320.412 154.937,320.647 155.420,320.921 155.957 C 321.195 156.494,321.436 156.999,321.457 157.078 C 321.560 157.469,321.770 158.004,322.206 158.984 C 323.266 161.369,325.401 168.247,325.904 170.898 C 325.955 171.167,326.115 171.914,326.260 172.559 C 326.405 173.203,326.584 174.192,326.659 174.756 C 326.733 175.319,326.875 175.831,326.975 175.892 C 327.074 175.953,327.116 176.067,327.068 176.144 C 327.020 176.222,327.063 176.897,327.164 177.644 C 327.353 179.042,327.450 179.989,327.734 183.203 C 327.885 184.908,327.819 197.318,327.644 200.138 C 327.557 201.537,327.349 204.084,327.239 205.078 C 327.198 205.454,327.111 206.377,327.046 207.129 C 326.892 208.902,326.796 209.647,326.568 210.840 C 326.465 211.377,326.327 212.388,326.260 213.086 C 326.116 214.588,326.093 214.734,325.876 215.625 C 325.785 216.001,325.701 216.396,325.690 216.504 C 325.679 216.611,325.556 217.209,325.417 217.833 C 325.277 218.456,325.139 219.203,325.110 219.493 C 325.080 219.783,325.008 220.151,324.950 220.313 C 324.892 220.474,324.479 222.100,324.031 223.926 C 323.079 227.809,323.160 227.507,322.906 228.125 C 322.796 228.394,322.644 228.921,322.569 229.297 C 322.494 229.673,322.314 230.244,322.170 230.566 C 322.025 230.889,321.846 231.482,321.772 231.885 C 321.697 232.288,321.574 232.617,321.498 232.617 C 321.383 232.617,320.743 234.389,320.618 235.053 C 320.598 235.164,320.301 235.844,319.958 236.564 C 319.616 237.285,319.336 237.958,319.336 238.060 C 319.336 238.162,319.128 238.671,318.874 239.191 C 316.798 243.446,315.909 245.229,315.823 245.313 C 315.768 245.366,315.548 245.762,315.334 246.191 C 315.120 246.621,314.900 247.017,314.845 247.070 C 314.522 247.386,312.500 250.716,312.500 250.933 C 312.500 251.012,312.324 251.188,312.109 251.322 C 311.895 251.456,311.719 251.690,311.719 251.841 C 311.719 251.992,311.653 252.145,311.572 252.181 C 311.383 252.265,310.156 253.845,310.156 254.006 C 310.156 254.600,303.481 261.911,300.977 264.060 C 300.708 264.291,300.093 264.827,299.609 265.251 C 298.276 266.422,295.356 268.714,294.867 268.972 C 294.628 269.099,294.302 269.342,294.141 269.513 C 293.979 269.684,293.540 269.991,293.164 270.194 C 292.788 270.398,292.305 270.721,292.090 270.914 C 291.875 271.106,291.479 271.383,291.211 271.530 C 290.942 271.677,290.110 272.188,289.361 272.666 C 288.612 273.144,287.984 273.491,287.966 273.438 C 287.947 273.384,287.769 273.477,287.569 273.645 C 287.370 273.812,286.636 274.243,285.938 274.602 C 285.239 274.961,284.031 275.595,283.252 276.011 C 282.473 276.426,281.836 276.718,281.836 276.658 C 281.836 276.599,281.462 276.754,281.006 277.003 C 280.549 277.253,279.561 277.709,278.809 278.018 C 278.057 278.327,277.354 278.643,277.246 278.720 C 277.139 278.798,276.765 278.922,276.416 278.997 C 276.067 279.072,275.781 279.219,275.781 279.324 C 275.781 279.429,275.709 279.471,275.621 279.416 C 275.532 279.362,275.247 279.425,274.986 279.557 C 274.725 279.689,274.006 279.966,273.389 280.173 C 272.771 280.380,272.266 280.605,272.266 280.672 C 272.266 280.739,272.156 280.800,272.021 280.807 C 271.887 280.813,271.258 281.004,270.624 281.230 C 269.989 281.456,269.358 281.641,269.220 281.641 C 269.083 281.641,268.723 281.742,268.421 281.866 C 268.119 281.990,267.743 282.117,267.586 282.148 C 267.430 282.179,266.990 282.332,266.610 282.488 C 266.005 282.737,264.193 283.211,262.695 283.514 C 262.427 283.568,261.855 283.705,261.426 283.819 C 260.996 283.933,260.601 284.027,260.547 284.028 C 260.493 284.030,260.229 284.117,259.961 284.222 C 259.692 284.326,259.297 284.441,259.082 284.477 C 258.324 284.603,257.515 284.782,257.129 284.910 C 256.663 285.064,256.756 285.043,255.664 285.240 C 255.181 285.327,254.609 285.434,254.395 285.479 C 254.180 285.523,253.608 285.642,253.125 285.742 C 251.349 286.112,250.158 286.333,249.414 286.431 C 249.146 286.467,248.354 286.594,247.656 286.714 C 245.705 287.049,241.547 287.676,241.016 287.715 C 240.854 287.727,240.063 287.828,239.258 287.939 C 238.452 288.051,237.600 288.131,237.363 288.117 C 236.757 288.082,236.653 288.372,237.165 288.671 C 237.596 288.922,239.742 291.209,240.572 292.299 C 242.111 294.323,243.288 296.097,243.930 297.363 C 244.148 297.793,244.404 298.276,244.499 298.438 C 245.786 300.625,247.813 306.296,248.548 309.766 C 248.605 310.034,248.730 310.562,248.826 310.938 C 248.922 311.313,249.053 312.017,249.116 312.500 C 249.180 312.983,249.328 313.862,249.445 314.453 C 249.563 315.044,249.678 315.791,249.703 316.113 C 249.727 316.436,249.808 317.314,249.883 318.066 C 250.232 321.569,250.265 328.201,250.097 361.586 C 250.040 372.846,250.059 382.162,250.138 382.289 C 250.217 382.416,250.308 382.689,250.340 382.896 C 250.580 384.438,251.719 386.494,252.913 387.539 C 254.045 388.530,254.483 388.867,254.641 388.868 C 254.720 388.869,255.049 389.012,255.371 389.187 C 255.898 389.472,256.502 389.649,258.008 389.960 C 260.318 390.436,265.228 389.764,266.372 388.814 C 266.531 388.682,266.670 388.603,266.680 388.639 C 266.716 388.763,267.873 388.421,268.145 388.205 C 268.296 388.086,268.428 388.016,268.438 388.050 C 268.458 388.115,268.989 387.957,269.629 387.695 C 270.141 387.486,270.776 387.247,270.898 387.217 C 271.606 387.048,276.634 384.966,276.846 384.755 C 276.948 384.653,277.191 384.570,277.385 384.570 C 277.580 384.570,277.892 384.488,278.079 384.387 C 278.676 384.064,281.051 383.008,281.180 383.008 C 281.308 383.008,282.973 382.223,287.031 380.250 C 288.330 379.619,289.495 379.102,289.619 379.102 C 289.743 379.102,289.844 379.034,289.844 378.951 C 289.844 378.868,290.129 378.663,290.479 378.497 C 292.604 377.483,294.643 376.464,294.727 376.374 C 294.780 376.317,295.220 376.065,295.703 375.814 C 297.370 374.951,298.145 374.511,298.372 374.298 C 298.497 374.181,298.871 373.972,299.202 373.835 C 299.534 373.698,299.805 373.508,299.805 373.414 C 299.805 373.319,299.974 373.242,300.181 373.242 C 300.389 373.242,300.678 373.122,300.825 372.975 C 300.972 372.828,301.286 372.646,301.523 372.571 C 301.759 372.496,301.953 372.363,301.953 372.275 C 301.953 372.188,302.107 372.063,302.295 371.998 C 302.689 371.862,303.957 371.110,304.102 370.925 C 304.155 370.857,304.595 370.591,305.078 370.334 C 306.332 369.668,310.580 366.915,312.793 365.334 C 313.330 364.950,314.121 364.405,314.551 364.122 C 315.730 363.347,318.386 361.384,318.996 360.838 C 319.292 360.572,319.600 360.347,319.679 360.336 C 319.845 360.315,320.195 360.054,322.340 358.351 C 323.187 357.679,324.374 356.748,324.977 356.283 C 326.216 355.327,326.411 355.169,328.032 353.809 C 328.672 353.271,329.364 352.700,329.569 352.539 C 329.774 352.378,330.280 351.917,330.693 351.514 C 331.107 351.111,331.496 350.781,331.557 350.781 C 331.669 350.781,332.997 349.589,334.455 348.182 C 334.879 347.772,335.388 347.351,335.587 347.244 C 335.786 347.138,335.901 346.974,335.842 346.879 C 335.784 346.785,335.895 346.658,336.088 346.596 C 336.281 346.535,337.075 345.826,337.852 345.020 C 338.629 344.214,339.351 343.555,339.457 343.555 C 339.562 343.555,339.648 343.484,339.648 343.397 C 339.648 343.310,340.362 342.541,341.234 341.688 C 342.106 340.835,342.963 339.976,343.138 339.780 C 343.314 339.584,344.292 338.560,345.313 337.506 C 346.333 336.451,347.623 335.073,348.178 334.444 C 348.734 333.815,349.467 332.993,349.807 332.617 C 350.147 332.241,350.703 331.593,351.043 331.176 C 351.382 330.759,351.804 330.276,351.981 330.102 C 352.157 329.928,352.841 329.126,353.500 328.320 C 354.159 327.515,354.872 326.650,355.084 326.399 C 355.296 326.149,355.469 325.911,355.469 325.872 C 355.469 325.833,355.700 325.555,355.982 325.254 C 356.265 324.953,356.857 324.224,357.299 323.633 C 357.742 323.042,358.192 322.494,358.300 322.415 C 358.408 322.336,358.430 322.270,358.350 322.269 C 358.270 322.267,358.548 321.901,358.968 321.455 C 359.388 321.009,359.849 320.416,359.992 320.137 C 360.136 319.857,360.302 319.585,360.362 319.531 C 360.421 319.478,360.728 319.082,361.044 318.652 C 361.360 318.223,361.668 317.827,361.727 317.773 C 361.787 317.720,362.048 317.368,362.308 316.992 C 362.568 316.616,362.893 316.192,363.031 316.051 C 363.168 315.909,363.281 315.667,363.281 315.513 C 363.281 315.360,363.358 315.234,363.452 315.234 C 363.651 315.234,369.151 307.018,369.125 306.760 C 369.115 306.665,369.184 306.533,369.277 306.467 C 369.472 306.330,370.898 304.186,370.898 304.029 C 370.898 303.972,371.151 303.548,371.460 303.086 C 371.769 302.624,372.082 302.048,372.157 301.807 C 372.231 301.565,372.374 301.367,372.474 301.367 C 372.574 301.367,372.656 301.275,372.656 301.162 C 372.656 301.050,372.946 300.501,373.300 299.942 C 373.654 299.383,374.193 298.442,374.498 297.852 C 374.803 297.261,375.215 296.569,375.414 296.315 C 375.613 296.061,375.728 295.775,375.669 295.680 C 375.611 295.585,375.635 295.508,375.722 295.508 C 375.871 295.508,376.411 294.472,376.381 294.244 C 376.373 294.187,376.543 293.965,376.758 293.750 C 376.973 293.535,377.148 293.190,377.148 292.983 C 377.148 292.776,377.258 292.488,377.393 292.344 C 377.724 291.988,380.123 287.305,379.974 287.305 C 379.909 287.305,380.025 287.063,380.230 286.768 C 380.436 286.472,380.978 285.396,381.436 284.375 C 381.893 283.354,382.566 281.883,382.930 281.106 C 383.295 280.328,383.594 279.642,383.594 279.580 C 383.594 279.518,383.826 278.967,384.109 278.357 C 384.392 277.746,384.626 277.136,384.630 277.002 C 384.633 276.868,384.709 276.758,384.798 276.758 C 384.888 276.758,384.963 276.648,384.965 276.514 C 384.966 276.379,385.281 275.522,385.663 274.609 C 386.045 273.696,386.664 272.070,387.039 270.996 C 387.415 269.922,387.774 268.911,387.838 268.750 C 387.902 268.589,387.965 268.413,387.978 268.359 C 387.991 268.306,388.108 268.071,388.238 267.837 C 388.368 267.603,388.506 267.252,388.544 267.056 C 388.582 266.860,388.677 266.552,388.755 266.373 C 388.833 266.193,388.915 265.929,388.937 265.787 C 388.958 265.644,389.044 265.419,389.126 265.286 C 389.247 265.093,389.785 263.503,389.953 262.842 C 389.973 262.761,390.012 262.651,390.039 262.598 C 390.066 262.544,390.106 262.434,390.129 262.354 C 390.152 262.273,390.222 262.075,390.285 261.914 C 390.562 261.203,391.437 258.198,391.488 257.780 C 391.497 257.708,391.570 257.584,391.650 257.503 C 391.731 257.423,391.797 257.169,391.797 256.940 C 391.797 256.711,391.879 256.440,391.979 256.338 C 392.079 256.236,392.189 255.889,392.223 255.566 C 392.257 255.244,392.329 254.937,392.383 254.883 C 392.437 254.829,392.768 253.687,393.119 252.344 C 393.471 251.001,393.793 249.771,393.835 249.609 C 394.048 248.798,394.914 245.152,394.995 244.727 C 395.046 244.458,395.265 243.491,395.482 242.578 C 395.700 241.665,395.912 240.654,395.955 240.332 C 395.997 240.010,396.083 239.614,396.146 239.453 C 396.303 239.050,396.917 235.625,397.004 234.668 C 397.043 234.238,397.155 233.623,397.254 233.301 C 397.352 232.979,397.476 232.319,397.530 231.836 C 397.583 231.353,397.672 230.825,397.726 230.664 C 397.781 230.503,397.874 229.932,397.934 229.395 C 397.993 228.857,398.136 227.671,398.252 226.758 C 398.510 224.729,398.628 223.746,398.722 222.852 C 398.761 222.476,398.841 221.772,398.899 221.289 C 398.957 220.806,399.052 219.927,399.110 219.336 C 399.168 218.745,399.261 217.822,399.317 217.285 C 399.373 216.748,399.458 215.605,399.505 214.746 C 399.552 213.887,399.661 212.085,399.747 210.742 C 400.048 206.019,399.915 190.487,399.535 185.840 C 399.482 185.195,399.387 184.009,399.323 183.203 C 399.259 182.397,399.159 181.255,399.099 180.664 C 399.040 180.073,398.966 179.238,398.934 178.809 C 398.862 177.842,398.612 175.818,398.500 175.293 C 398.454 175.078,398.388 174.595,398.354 174.219 C 398.200 172.532,398.004 171.201,397.849 170.794 C 397.757 170.551,397.718 170.316,397.762 170.272 C 397.807 170.227,397.758 169.669,397.653 169.031 C 397.549 168.393,397.415 167.476,397.357 166.992 C 397.298 166.509,397.076 165.278,396.863 164.258 C 396.649 163.237,396.425 162.051,396.365 161.621 C 396.304 161.191,396.077 160.049,395.859 159.082 C 395.484 157.412,395.009 155.164,394.808 154.102 C 394.757 153.833,394.667 153.481,394.608 153.320 C 394.446 152.875,393.156 147.833,393.039 147.186 C 392.982 146.873,392.842 146.390,392.727 146.112 C 392.612 145.833,392.495 145.495,392.468 145.361 C 392.262 144.366,391.131 140.675,390.971 140.479 C 390.862 140.344,390.830 140.234,390.901 140.234 C 390.972 140.234,390.943 140.072,390.836 139.874 C 390.730 139.676,390.598 139.263,390.543 138.958 C 390.428 138.326,389.800 136.476,389.650 136.328 C 389.595 136.274,389.528 136.022,389.500 135.768 C 389.472 135.514,389.326 135.030,389.175 134.694 C 389.024 134.357,388.796 133.730,388.667 133.301 C 388.538 132.871,388.309 132.322,388.157 132.080 C 388.006 131.838,387.927 131.641,387.982 131.641 C 388.038 131.641,387.959 131.311,387.807 130.908 C 387.656 130.505,387.252 129.429,386.910 128.516 C 386.568 127.603,386.234 126.768,386.167 126.660 C 386.101 126.553,386.026 126.377,386.002 126.270 C 385.885 125.755,385.294 124.288,384.857 123.424 C 384.589 122.896,384.385 122.441,384.403 122.413 C 384.486 122.286,383.888 120.898,383.750 120.898 C 383.664 120.898,383.594 120.728,383.594 120.519 C 383.594 120.311,383.506 120.086,383.398 120.020 C 383.291 119.953,383.203 119.728,383.203 119.520 C 383.203 119.311,383.101 119.141,382.975 119.141 C 382.850 119.141,382.801 119.087,382.866 119.022 C 382.932 118.956,382.815 118.584,382.606 118.194 C 382.397 117.805,382.227 117.422,382.227 117.344 C 382.227 117.074,378.671 109.863,378.479 109.744 C 378.373 109.678,378.298 109.546,378.311 109.451 C 378.340 109.233,377.303 107.171,377.083 107.009 C 376.993 106.944,376.921 106.836,376.922 106.771 C 376.926 106.504,376.468 105.469,376.346 105.469 C 376.273 105.469,376.161 105.255,376.095 104.994 C 376.030 104.733,375.866 104.403,375.732 104.262 C 375.598 104.120,375.294 103.608,375.056 103.125 C 374.364 101.717,373.547 100.298,373.389 100.228 C 373.308 100.192,373.242 100.038,373.242 99.886 C 373.242 99.734,373.154 99.609,373.047 99.609 C 372.939 99.609,372.852 99.484,372.852 99.331 C 372.852 99.179,372.624 98.783,372.346 98.452 C 372.068 98.122,371.895 97.852,371.961 97.852 C 372.028 97.852,371.757 97.346,371.358 96.729 C 370.960 96.111,370.503 95.342,370.342 95.020 C 369.610 93.554,362.829 83.573,362.470 83.431 C 362.379 83.395,362.305 83.251,362.305 83.110 C 362.305 82.969,362.050 82.581,361.738 82.247 C 361.426 81.914,361.207 81.641,361.249 81.641 C 361.292 81.641,360.712 80.828,359.960 79.834 C 358.038 77.295,357.796 76.980,357.079 76.086 C 356.729 75.650,356.377 75.204,356.297 75.096 C 356.218 74.987,355.889 74.588,355.566 74.207 C 355.244 73.827,354.687 73.151,354.328 72.704 C 353.969 72.258,353.485 71.686,353.253 71.432 C 353.022 71.178,352.544 70.614,352.191 70.177 C 351.838 69.740,351.267 69.079,350.921 68.706 C 350.576 68.334,350.086 67.753,349.832 67.414 C 349.579 67.076,348.577 65.986,347.605 64.991 C 346.634 63.997,345.830 63.139,345.820 63.084 C 345.804 63.001,342.439 59.462,341.383 58.418 C 338.173 55.244,334.999 52.261,332.394 49.966 C 330.089 47.937,329.492 47.437,329.492 47.536 C 329.492 47.598,329.196 47.365,328.834 47.018 C 328.049 46.265,327.490 45.795,326.505 45.055 C 326.102 44.752,325.577 44.309,325.337 44.070 C 325.098 43.832,324.199 43.113,323.340 42.473 C 322.480 41.834,321.713 41.222,321.634 41.114 C 321.553 41.003,321.489 40.998,321.487 41.102 C 321.486 41.203,321.375 41.147,321.240 40.979 C 321.106 40.810,320.337 40.180,319.531 39.579 C 318.726 38.979,317.978 38.419,317.871 38.335 C 316.825 37.523,316.203 37.109,316.029 37.109 C 315.914 37.109,315.820 37.034,315.820 36.941 C 315.820 36.849,315.227 36.393,314.502 35.928 C 313.777 35.463,313.140 35.026,313.086 34.958 C 313.032 34.890,312.703 34.668,312.354 34.465 C 312.004 34.262,311.719 34.027,311.719 33.942 C 311.719 33.858,311.638 33.789,311.539 33.789 C 311.382 33.789,309.034 32.314,308.496 31.877 C 308.389 31.790,307.906 31.503,307.423 31.240 C 306.940 30.977,306.325 30.564,306.057 30.322 C 305.790 30.081,305.416 29.883,305.227 29.883 C 305.038 29.883,304.883 29.811,304.883 29.722 C 304.883 29.634,304.487 29.364,304.004 29.122 C 303.521 28.881,303.125 28.602,303.125 28.502 C 303.125 28.402,302.946 28.320,302.728 28.320 C 302.510 28.320,302.284 28.196,302.226 28.045 C 302.168 27.894,301.886 27.711,301.599 27.639 C 301.313 27.567,301.033 27.449,300.979 27.376 C 300.824 27.173,298.823 25.977,298.636 25.977 C 298.545 25.977,298.441 25.907,298.405 25.821 C 298.369 25.735,297.944 25.473,297.461 25.237 C 296.978 25.002,296.208 24.590,295.752 24.322 C 295.295 24.053,294.922 23.890,294.922 23.959 C 294.922 24.028,294.768 23.947,294.580 23.780 C 294.146 23.395,291.671 22.061,291.233 21.977 C 291.051 21.942,290.450 21.647,289.897 21.321 C 288.477 20.483,284.093 18.359,283.784 18.359 C 283.643 18.359,283.388 18.242,283.219 18.099 C 283.049 17.956,282.427 17.637,281.836 17.391 C 281.245 17.144,280.103 16.638,279.297 16.265 C 277.966 15.650,275.828 14.777,275.586 14.751 C 275.398 14.730,273.143 13.802,272.949 13.665 C 272.842 13.590,272.402 13.417,271.973 13.281 C 271.543 13.146,271.082 12.948,270.947 12.841 C 270.813 12.735,270.703 12.713,270.703 12.793 C 270.703 12.873,270.593 12.853,270.459 12.748 C 270.325 12.643,269.951 12.464,269.629 12.350 C 269.307 12.237,267.911 11.743,266.527 11.252 C 265.143 10.762,263.935 10.407,263.841 10.465 C 263.748 10.523,263.672 10.467,263.672 10.342 C 263.672 10.217,263.540 10.165,263.379 10.227 C 263.218 10.289,263.086 10.264,263.086 10.172 C 263.086 10.079,262.361 9.809,261.475 9.571 C 260.588 9.334,259.753 9.049,259.619 8.940 C 259.485 8.831,259.375 8.794,259.375 8.858 C 259.375 8.922,259.133 8.881,258.838 8.767 C 258.542 8.653,258.169 8.528,258.008 8.490 C 257.847 8.452,257.100 8.238,256.348 8.014 C 255.596 7.790,254.795 7.566,254.569 7.516 C 254.343 7.466,253.777 7.290,253.312 7.126 C 252.847 6.962,251.889 6.691,251.184 6.524 C 250.479 6.357,249.727 6.179,249.512 6.128 C 249.297 6.077,248.908 5.991,248.646 5.937 C 248.385 5.883,248.114 5.803,248.044 5.760 C 247.974 5.717,247.616 5.631,247.249 5.570 C 246.882 5.510,246.338 5.362,246.039 5.243 C 245.740 5.123,245.440 5.081,245.373 5.148 C 245.306 5.215,245.133 5.172,244.989 5.053 C 244.845 4.933,244.727 4.885,244.727 4.946 C 244.727 5.007,244.309 4.936,243.799 4.788 C 243.006 4.558,241.706 4.277,240.137 3.997 C 239.922 3.959,239.526 3.875,239.258 3.811 C 238.794 3.700,237.188 3.397,236.133 3.220 C 235.864 3.176,235.425 3.092,235.156 3.035 C 234.289 2.851,232.545 2.555,231.543 2.422 C 230.150 2.238,229.656 2.167,229.102 2.070 C 228.127 1.900,225.856 1.575,224.902 1.469 C 224.365 1.409,223.574 1.320,223.145 1.270 C 222.715 1.221,221.836 1.132,221.191 1.071 C 220.547 1.010,219.756 0.923,219.434 0.877 C 218.772 0.783,217.682 0.698,211.621 0.269 C 209.696 0.133,192.099 -0.041,191.980 0.075 " stroke="none" fill="#141c1c" fill-rule="evenodd"></path><path id="path1" d="M207.861 0.135 C 208.049 0.184,208.357 0.184,208.545 0.135 C 208.733 0.086,208.579 0.045,208.203 0.045 C 207.827 0.045,207.673 0.086,207.861 0.135 M182.471 0.721 C 182.659 0.770,182.966 0.770,183.154 0.721 C 183.342 0.671,183.188 0.631,182.813 0.631 C 182.437 0.631,182.283 0.671,182.471 0.721 M289.160 20.849 C 289.555 21.214,291.211 22.082,291.211 21.924 C 291.211 21.834,290.706 21.515,290.088 21.215 C 289.470 20.914,289.053 20.750,289.160 20.849 M91.216 31.943 C 90.844 32.206,90.624 32.421,90.728 32.421 C 90.833 32.420,91.182 32.204,91.504 31.940 C 92.256 31.323,92.092 31.325,91.216 31.943 M78.906 40.649 C 78.226 41.246,78.225 41.246,78.852 40.830 C 79.197 40.600,79.532 40.328,79.595 40.225 C 79.784 39.920,79.628 40.016,78.906 40.649 M325.407 44.189 C 325.452 44.216,325.752 44.458,326.074 44.727 L 326.660 45.215 326.187 44.678 C 325.926 44.382,325.626 44.141,325.519 44.141 C 325.413 44.141,325.362 44.163,325.407 44.189 M67.468 50.049 L 66.895 50.684 67.529 50.110 C 68.121 49.575,68.254 49.414,68.103 49.414 C 68.069 49.414,67.784 49.700,67.468 50.049 M66.075 51.284 L 65.527 51.786 66.162 51.345 C 66.511 51.102,66.797 50.876,66.797 50.842 C 66.797 50.688,66.581 50.820,66.075 51.284 M63.560 53.566 L 62.988 54.198 63.574 53.710 C 63.896 53.442,64.197 53.201,64.242 53.174 C 64.286 53.147,64.280 53.082,64.227 53.029 C 64.175 52.977,63.874 53.218,63.560 53.566 M59.564 57.364 C 58.555 58.417,58.545 58.436,59.391 57.706 C 60.164 57.039,60.867 56.250,60.688 56.250 C 60.657 56.250,60.151 56.751,59.564 57.364 M342.309 59.451 C 342.725 59.923,343.198 60.367,343.359 60.438 C 343.521 60.510,343.216 60.124,342.683 59.581 C 341.490 58.366,341.287 58.296,342.309 59.451 M56.726 60.205 L 56.152 60.840 56.787 60.266 C 57.379 59.731,57.512 59.570,57.361 59.570 C 57.327 59.570,57.042 59.856,56.726 60.205 M350.373 68.131 C 350.478 68.328,350.718 68.614,350.906 68.766 C 351.117 68.937,351.069 68.801,350.782 68.408 C 350.269 67.707,350.077 67.577,350.373 68.131 M271.117 90.941 C 270.539 91.205,270.113 91.467,270.170 91.524 C 270.227 91.581,270.788 91.362,271.416 91.038 C 272.786 90.331,272.592 90.268,271.117 90.941 M198.684 96.625 C 198.981 96.669,199.421 96.668,199.661 96.622 C 199.901 96.576,199.658 96.539,199.121 96.540 C 198.584 96.542,198.387 96.580,198.684 96.625 M201.419 96.625 C 201.716 96.669,202.155 96.668,202.395 96.622 C 202.635 96.576,202.393 96.539,201.855 96.540 C 201.318 96.542,201.122 96.580,201.419 96.625 M312.390 141.861 C 312.691 142.255,312.976 142.578,313.025 142.578 C 313.160 142.578,312.315 141.436,312.065 141.281 C 311.943 141.206,312.089 141.467,312.390 141.861 M96.881 261.084 C 96.885 261.165,97.126 261.399,97.418 261.605 L 97.949 261.980 97.476 261.459 C 96.978 260.911,96.871 260.843,96.881 261.084 M302.529 262.433 C 301.995 262.999,301.963 263.070,302.374 262.775 C 302.822 262.453,303.440 261.719,303.263 261.719 C 303.229 261.719,302.899 262.040,302.529 262.433 M291.309 271.289 C 290.986 271.502,290.811 271.676,290.918 271.674 C 291.114 271.671,292.176 270.910,291.992 270.904 C 291.938 270.902,291.631 271.076,291.309 271.289 M282.373 276.284 C 281.643 276.680,281.687 276.845,282.422 276.465 C 282.744 276.298,283.008 276.120,283.008 276.069 C 283.008 275.944,282.987 275.951,282.373 276.284 M53.935 279.805 C 53.790 279.970,53.710 280.143,53.758 280.190 C 53.805 280.237,54.003 280.100,54.198 279.884 C 54.393 279.669,54.473 279.496,54.376 279.500 C 54.279 279.504,54.080 279.641,53.935 279.805 M265.820 282.617 C 265.418 282.746,265.401 282.776,265.723 282.790 C 265.938 282.799,266.245 282.721,266.406 282.617 C 266.748 282.396,266.511 282.396,265.820 282.617 M80.078 284.429 C 80.078 284.466,80.364 284.706,80.713 284.962 C 81.106 285.249,81.242 285.296,81.071 285.085 C 80.811 284.765,80.078 284.281,80.078 284.429 M85.352 289.160 C 87.065 290.882,87.651 291.362,86.484 290.088 C 85.325 288.821,83.972 287.500,83.833 287.500 C 83.760 287.500,84.443 288.247,85.352 289.160 M163.666 288.274 C 163.915 288.431,163.910 288.472,163.633 288.579 C 163.456 288.647,163.256 288.847,163.188 289.024 C 163.105 289.241,163.228 289.192,163.563 288.877 C 164.148 288.328,164.196 288.085,163.721 288.089 C 163.434 288.091,163.425 288.121,163.666 288.274 M237.891 289.514 C 237.891 289.548,238.176 289.833,238.525 290.149 L 239.160 290.723 238.587 290.088 C 238.052 289.496,237.891 289.363,237.891 289.514 M89.343 293.619 C 89.644 294.013,89.930 294.336,89.978 294.336 C 90.114 294.336,89.268 293.193,89.018 293.039 C 88.896 292.964,89.042 293.225,89.343 293.619 M26.465 299.805 C 26.631 300.127,26.812 300.391,26.866 300.391 C 26.919 300.391,26.827 300.127,26.660 299.805 C 26.494 299.482,26.313 299.219,26.259 299.219 C 26.206 299.219,26.298 299.482,26.465 299.805 M98.227 306.127 C 98.756 306.701,98.860 306.757,98.721 306.392 C 98.668 306.256,98.429 306.024,98.190 305.878 C 97.774 305.625,97.776 305.637,98.227 306.127 M103.304 311.200 C 103.584 311.548,104.297 312.005,104.297 311.837 C 104.297 311.786,104.011 311.545,103.662 311.300 C 103.212 310.984,103.108 310.955,103.304 311.200 M48.047 330.335 C 48.047 330.368,48.333 330.654,48.682 330.969 L 49.316 331.543 48.743 330.908 C 48.208 330.317,48.047 330.184,48.047 330.335 M90.234 331.704 C 90.234 331.893,91.033 332.665,91.129 332.569 C 91.173 332.525,90.990 332.282,90.722 332.031 C 90.454 331.779,90.234 331.632,90.234 331.704 M348.718 333.838 L 348.145 334.473 348.779 333.899 C 349.371 333.364,349.504 333.203,349.353 333.203 C 349.319 333.203,349.034 333.489,348.718 333.838 M343.460 339.398 L 343.117 339.941 343.569 339.507 C 343.818 339.269,343.972 339.024,343.912 338.964 C 343.852 338.904,343.649 339.099,343.460 339.398 M58.296 341.369 C 59.153 342.249,59.889 342.969,59.931 342.969 C 60.068 342.969,59.500 342.335,58.398 341.258 C 56.668 339.566,56.606 339.633,58.296 341.369 M341.895 340.994 C 341.465 341.407,340.851 342.042,340.531 342.405 C 340.211 342.769,340.584 342.454,341.361 341.704 C 342.138 340.955,342.773 340.318,342.773 340.288 C 342.773 340.170,342.646 340.273,341.895 340.994 M150.245 344.043 C 150.247 344.473,150.287 344.625,150.333 344.382 C 150.380 344.140,150.378 343.788,150.330 343.601 C 150.281 343.415,150.242 343.613,150.245 344.043 M338.867 343.921 C 338.135 344.756,338.069 344.961,338.729 344.346 C 339.127 343.976,339.453 343.647,339.453 343.614 C 339.453 343.454,339.128 343.624,338.867 343.921 M65.039 347.717 C 65.039 347.751,65.303 348.031,65.625 348.340 C 66.336 349.021,66.415 348.854,65.714 348.153 C 65.260 347.699,65.039 347.557,65.039 347.717 M250.061 351.270 C 250.062 351.914,250.098 352.154,250.142 351.803 C 250.185 351.452,250.184 350.925,250.140 350.631 C 250.095 350.338,250.059 350.625,250.061 351.270 M324.219 356.862 L 323.340 357.658 324.167 357.038 C 324.887 356.498,325.349 356.042,325.158 356.061 C 325.125 356.064,324.702 356.425,324.219 356.862 M290.332 378.529 C 289.577 379.013,289.930 379.003,290.820 378.516 C 291.196 378.310,291.372 378.144,291.211 378.147 C 291.050 378.151,290.654 378.322,290.332 378.529 M286.328 380.566 C 286.060 380.720,285.928 380.846,286.035 380.846 C 286.143 380.846,286.450 380.720,286.719 380.566 C 286.987 380.413,287.119 380.287,287.012 380.287 C 286.904 380.287,286.597 380.413,286.328 380.566 M116.602 381.934 C 116.870 382.087,117.178 382.213,117.285 382.213 C 117.393 382.213,117.261 382.087,116.992 381.934 C 116.724 381.780,116.416 381.654,116.309 381.654 C 116.201 381.654,116.333 381.780,116.602 381.934 " stroke="none" fill="#14141c" fill-rule="evenodd"></path><path id="path2" d="" stroke="none" fill="#181c1c" fill-rule="evenodd"></path><path id="path3" d="" stroke="none" fill="#181c1c" fill-rule="evenodd"></path><path id="path4" d="" stroke="none" fill="#181c1c" fill-rule="evenodd"></path></g></svg>