<svg id="svg" version="1.1" xmlns="http://www.w3.org/2000/svg" xmlns:xlink="http://www.w3.org/1999/xlink" width="400" height="400" viewBox="0, 0, 400,400"><g id="svgg"><path id="path0" d="M193.281 26.900 C 192.415 28.495,190.849 31.420,189.800 33.400 C 188.752 35.380,187.762 37.180,187.600 37.400 C 187.438 37.620,186.164 40.050,184.770 42.800 C 183.376 45.550,181.492 49.150,180.584 50.800 C 179.675 52.450,177.525 56.500,175.806 59.800 C 174.087 63.100,170.302 70.300,167.395 75.800 C 164.488 81.300,160.891 88.140,159.403 91.000 C 157.915 93.860,155.843 97.820,154.799 99.800 C 153.755 101.780,151.955 105.200,150.798 107.400 C 145.573 117.338,144.194 119.955,142.994 122.200 C 142.289 123.520,140.221 127.480,138.399 131.000 C 135.170 137.235,133.239 140.898,130.597 145.800 C 129.885 147.120,127.455 151.800,125.197 156.200 C 122.938 160.600,120.960 164.380,120.801 164.600 C 120.642 164.820,119.112 167.700,117.402 171.000 C 115.691 174.300,113.800 177.900,113.199 179.000 C 112.597 180.100,110.613 183.880,108.789 187.400 C 106.965 190.920,102.691 199.110,99.290 205.600 C 92.132 219.262,89.333 224.611,86.000 231.000 C 81.046 240.496,78.639 245.093,76.997 248.200 C 76.066 249.960,73.819 254.280,72.003 257.800 C 70.187 261.320,68.117 265.280,67.404 266.600 C 66.073 269.063,63.756 273.474,59.001 282.600 C 57.511 285.460,55.441 289.420,54.402 291.400 C 53.362 293.380,51.022 297.880,49.202 301.400 C 47.381 304.920,45.133 309.240,44.205 311.000 C 43.278 312.760,40.349 318.340,37.696 323.400 C 35.043 328.460,31.406 335.390,29.612 338.800 C 27.819 342.210,24.022 349.735,21.176 355.523 L 16.000 366.045 16.000 369.624 L 16.000 373.202 82.088 373.101 C 147.721 373.001,148.179 372.994,148.589 372.200 C 149.539 370.358,156.239 357.552,157.797 354.600 C 160.737 349.029,163.810 343.167,166.602 337.800 C 168.090 334.940,169.980 331.340,170.801 329.800 C 171.623 328.260,173.965 323.760,176.006 319.800 C 178.047 315.840,179.843 312.420,179.999 312.200 C 180.154 311.980,182.223 308.020,184.597 303.400 C 186.971 298.780,189.041 294.820,189.197 294.600 C 189.353 294.380,191.241 290.780,193.393 286.600 C 195.544 282.420,197.616 278.460,197.997 277.800 C 198.378 277.140,200.630 272.820,203.002 268.200 C 205.373 263.580,207.442 259.620,207.600 259.400 C 207.758 259.180,209.827 255.220,212.198 250.600 C 214.570 245.980,216.821 241.660,217.201 241.000 C 217.581 240.340,219.561 236.560,221.600 232.600 C 223.639 228.640,225.619 224.860,225.999 224.200 C 226.379 223.540,228.630 219.220,231.002 214.600 C 233.373 209.980,235.441 206.020,235.596 205.800 C 235.752 205.580,237.911 201.440,240.395 196.600 C 242.878 191.760,245.039 187.620,245.196 187.400 C 245.352 187.180,247.200 183.670,249.303 179.600 C 251.405 175.530,254.497 169.590,256.175 166.400 C 257.853 163.210,260.075 158.935,261.113 156.900 L 263.000 153.200 261.111 149.500 C 260.073 147.465,257.811 143.100,256.085 139.800 C 254.359 136.500,251.360 130.740,249.420 127.000 C 247.480 123.260,245.220 118.940,244.397 117.400 C 243.574 115.860,241.504 111.900,239.797 108.600 C 238.090 105.300,235.840 100.980,234.796 99.000 C 233.753 97.020,231.684 93.060,230.199 90.200 C 228.714 87.340,226.915 83.920,226.201 82.600 C 225.488 81.280,223.236 76.960,221.197 73.000 C 219.159 69.040,217.362 65.620,217.204 65.400 C 217.047 65.180,215.520 62.300,213.812 59.000 C 212.103 55.700,210.570 52.820,210.405 52.600 C 210.240 52.380,208.438 48.960,206.400 45.000 C 204.362 41.040,202.563 37.620,202.401 37.400 C 202.240 37.180,201.207 35.290,200.106 33.200 C 197.264 27.805,195.149 24.000,194.991 24.000 C 194.917 24.000,194.147 25.305,193.281 26.900 M279.882 193.700 C 278.683 195.955,276.397 200.320,274.802 203.400 C 273.207 206.480,271.408 209.900,270.806 211.000 C 270.203 212.100,268.041 216.240,266.002 220.200 C 263.962 224.160,261.710 228.480,260.996 229.800 C 260.283 231.120,258.035 235.440,256.000 239.400 C 253.965 243.360,251.536 248.040,250.601 249.800 C 249.667 251.560,247.238 256.240,245.204 260.200 C 243.170 264.160,241.374 267.580,241.214 267.800 C 241.054 268.020,238.714 272.520,236.014 277.800 C 233.315 283.080,230.972 287.580,230.809 287.800 C 230.645 288.020,228.981 291.170,227.110 294.800 C 225.239 298.430,221.673 305.343,219.187 310.163 L 214.667 318.926 220.514 330.563 C 223.729 336.963,227.518 344.360,228.933 347.000 C 231.557 351.896,239.015 366.183,241.305 370.700 L 242.572 373.200 310.515 373.200 L 378.458 373.200 374.973 366.500 C 373.056 362.815,370.545 358.000,369.394 355.800 C 365.440 348.248,353.919 326.047,347.598 313.800 C 345.782 310.280,343.353 305.600,342.200 303.400 C 341.048 301.200,338.525 296.340,336.593 292.600 C 334.661 288.860,332.951 285.620,332.794 285.400 C 332.636 285.180,331.462 282.930,330.184 280.400 C 328.907 277.870,327.384 275.080,326.800 274.200 C 326.216 273.320,323.746 268.730,321.310 264.000 C 314.570 250.909,312.077 246.102,310.209 242.600 C 309.271 240.840,306.203 234.900,303.391 229.400 C 300.579 223.900,298.149 219.220,297.991 219.000 C 297.834 218.780,295.939 215.180,293.781 211.000 C 291.623 206.820,288.763 201.330,287.426 198.800 C 286.088 196.270,284.455 193.165,283.797 191.901 C 282.270 188.968,282.440 188.890,279.882 193.700 " stroke="none" fill="#040404" fill-rule="evenodd"></path><path id="path1" d="M0.000 200.000 L 0.000 400.000 200.000 400.000 L 400.000 400.000 400.000 200.000 L 400.000 0.000 200.000 0.000 L 0.000 0.000 0.000 200.000 M195.903 24.300 C 196.684 25.433,203.555 38.107,207.992 46.600 C 211.518 53.348,214.091 58.212,217.199 64.000 C 218.675 66.750,221.373 71.880,223.194 75.400 C 225.014 78.920,227.267 83.240,228.199 85.000 C 229.132 86.760,231.112 90.540,232.601 93.400 C 234.089 96.260,236.249 100.400,237.399 102.600 C 238.550 104.800,240.668 108.850,242.107 111.600 C 256.646 139.399,263.600 152.877,263.600 153.260 C 263.600 153.513,262.814 155.177,261.854 156.959 C 260.893 158.742,258.529 163.260,256.600 167.000 C 254.670 170.740,252.600 174.700,251.999 175.800 C 251.397 176.900,249.238 181.040,247.200 185.000 C 245.162 188.960,243.002 193.100,242.400 194.200 C 241.798 195.300,239.997 198.720,238.399 201.800 C 235.376 207.625,234.027 210.214,226.200 225.200 C 218.710 239.540,216.813 243.169,214.800 247.000 C 212.671 251.052,209.451 257.217,205.296 265.200 C 203.749 268.170,198.577 278.070,193.801 287.200 C 189.026 296.330,183.942 306.050,182.505 308.800 C 181.068 311.550,178.947 315.600,177.791 317.800 C 176.636 320.000,171.600 329.630,166.598 339.200 C 148.511 373.812,148.764 373.336,148.235 373.694 C 147.614 374.113,16.315 374.060,15.652 373.640 C 15.228 373.372,15.142 372.396,15.272 369.346 L 15.440 365.400 18.312 359.800 C 19.891 356.720,21.808 352.850,22.570 351.200 C 23.333 349.550,25.191 345.860,26.699 343.000 C 28.208 340.140,30.942 334.920,32.775 331.400 C 34.608 327.880,36.782 323.740,37.607 322.200 C 39.317 319.005,52.501 293.698,57.299 284.400 C 59.059 280.990,61.174 276.940,62.000 275.400 C 65.764 268.376,67.044 265.944,72.202 256.000 C 75.227 250.170,78.554 243.780,79.597 241.800 C 83.918 233.591,88.990 223.903,92.997 216.200 C 94.485 213.340,96.469 209.560,97.406 207.800 C 98.343 206.040,102.302 198.480,106.204 191.000 C 110.106 183.520,115.770 172.720,118.791 167.000 C 121.813 161.280,125.957 153.360,128.001 149.400 C 130.044 145.440,131.843 142.020,131.998 141.800 C 132.154 141.580,133.864 138.340,135.799 134.600 C 137.734 130.860,139.804 126.900,140.399 125.800 C 140.994 124.700,142.882 121.100,144.595 117.800 C 146.308 114.500,149.190 109.010,150.999 105.600 C 152.808 102.190,155.553 96.970,157.098 94.000 C 160.563 87.341,166.840 75.429,168.584 72.200 C 169.297 70.880,171.374 66.920,173.200 63.400 C 175.025 59.880,177.816 54.570,179.402 51.600 C 180.988 48.630,183.330 44.220,184.606 41.800 C 193.153 25.588,194.468 23.200,194.846 23.200 C 195.011 23.200,195.487 23.695,195.903 24.300 M287.000 196.501 C 291.732 205.603,296.540 214.881,302.079 225.600 C 304.296 229.890,306.237 233.580,306.393 233.800 C 306.549 234.020,308.707 238.160,311.189 243.000 C 313.671 247.840,316.736 253.780,317.999 256.200 C 319.263 258.620,321.694 263.300,323.403 266.600 C 325.111 269.900,326.818 273.050,327.196 273.600 C 327.574 274.150,328.878 276.490,330.093 278.800 C 335.110 288.336,341.862 301.296,347.599 312.400 C 350.953 318.890,354.640 326.000,355.793 328.200 C 356.947 330.400,360.919 338.050,364.622 345.200 C 368.324 352.350,372.316 360.000,373.494 362.200 C 377.715 370.088,378.926 372.694,378.676 373.347 C 378.342 374.218,243.412 374.369,242.330 373.500 C 241.988 373.225,240.040 369.760,238.001 365.800 C 235.962 361.840,233.350 356.800,232.196 354.600 C 231.042 352.400,228.099 346.787,225.655 342.128 C 218.691 328.850,214.400 320.009,214.400 318.938 C 214.400 318.397,215.821 315.220,217.558 311.878 C 219.294 308.535,223.100 301.210,226.014 295.600 C 228.929 289.990,233.332 281.530,235.800 276.800 C 238.268 272.070,242.672 263.610,245.587 258.000 C 248.502 252.390,251.927 245.820,253.197 243.400 C 254.467 240.980,257.800 234.590,260.603 229.200 C 263.406 223.810,266.547 217.780,267.582 215.800 C 268.618 213.820,272.219 206.935,275.585 200.500 C 279.780 192.482,281.909 188.801,282.353 188.804 C 282.786 188.807,284.320 191.346,287.000 196.501 " stroke="none" fill="#fbfbfb" fill-rule="evenodd"></path><path id="path2" d="M193.400 25.200 C 193.059 25.860,192.869 26.400,192.979 26.400 C 193.089 26.400,193.459 25.860,193.800 25.200 C 194.141 24.540,194.331 24.000,194.221 24.000 C 194.111 24.000,193.741 24.540,193.400 25.200 M196.600 26.000 C 196.941 26.660,197.311 27.200,197.421 27.200 C 197.531 27.200,197.341 26.660,197.000 26.000 C 196.659 25.340,196.289 24.800,196.179 24.800 C 196.069 24.800,196.259 25.340,196.600 26.000 M190.600 30.400 C 190.043 31.500,189.677 32.400,189.787 32.400 C 189.897 32.400,190.443 31.500,191.000 30.400 C 191.557 29.300,191.923 28.400,191.813 28.400 C 191.703 28.400,191.157 29.300,190.600 30.400 M199.000 30.400 C 199.341 31.060,199.711 31.600,199.821 31.600 C 199.931 31.600,199.741 31.060,199.400 30.400 C 199.059 29.740,198.689 29.200,198.579 29.200 C 198.469 29.200,198.659 29.740,199.000 30.400 M200.815 33.800 C 200.817 34.020,201.186 34.650,201.636 35.200 C 202.179 35.864,202.315 35.931,202.040 35.400 C 201.366 34.095,200.812 33.372,200.815 33.800 M187.853 35.700 L 187.133 37.000 187.958 36.000 C 188.689 35.113,189.014 34.400,188.686 34.400 C 188.624 34.400,188.249 34.985,187.853 35.700 M204.200 40.000 C 204.757 41.100,205.303 42.000,205.413 42.000 C 205.523 42.000,205.157 41.100,204.600 40.000 C 204.043 38.900,203.497 38.000,203.387 38.000 C 203.277 38.000,203.643 38.900,204.200 40.000 M183.400 44.000 C 182.843 45.100,182.477 46.000,182.587 46.000 C 182.697 46.000,183.243 45.100,183.800 44.000 C 184.357 42.900,184.723 42.000,184.613 42.000 C 184.503 42.000,183.957 42.900,183.400 44.000 M208.006 47.250 C 207.997 47.605,210.033 51.200,210.242 51.200 C 210.338 51.200,210.060 50.525,209.624 49.700 C 208.678 47.911,208.015 46.906,208.006 47.250 M180.240 49.998 C 179.640 51.099,179.236 52.000,179.341 52.000 C 179.608 52.000,181.643 48.310,181.471 48.137 C 181.393 48.060,180.839 48.897,180.240 49.998 M177.000 56.000 C 176.443 57.100,176.077 58.000,176.187 58.000 C 176.297 58.000,176.843 57.100,177.400 56.000 C 177.957 54.900,178.323 54.000,178.213 54.000 C 178.103 54.000,177.557 54.900,177.000 56.000 M212.600 56.000 C 212.941 56.660,213.311 57.200,213.421 57.200 C 213.531 57.200,213.341 56.660,213.000 56.000 C 212.659 55.340,212.289 54.800,212.179 54.800 C 212.069 54.800,212.259 55.340,212.600 56.000 M215.206 60.850 C 215.197 61.205,217.233 64.800,217.442 64.800 C 217.538 64.800,217.260 64.125,216.824 63.300 C 215.878 61.511,215.215 60.506,215.206 60.850 M172.240 65.198 C 171.640 66.299,171.236 67.200,171.341 67.200 C 171.608 67.200,173.643 63.510,173.471 63.337 C 173.393 63.260,172.839 64.097,172.240 65.198 M219.400 68.800 C 219.957 69.900,220.503 70.800,220.613 70.800 C 220.723 70.800,220.357 69.900,219.800 68.800 C 219.243 67.700,218.697 66.800,218.587 66.800 C 218.477 66.800,218.843 67.700,219.400 68.800 M167.800 73.600 C 167.459 74.260,167.269 74.800,167.379 74.800 C 167.489 74.800,167.859 74.260,168.200 73.600 C 168.541 72.940,168.731 72.400,168.621 72.400 C 168.511 72.400,168.141 72.940,167.800 73.600 M221.606 72.831 C 221.596 73.197,225.667 80.956,226.101 81.400 C 226.317 81.620,225.573 80.000,224.450 77.800 C 222.376 73.741,221.617 72.414,221.606 72.831 M165.040 78.798 C 164.440 79.899,164.036 80.800,164.141 80.800 C 164.408 80.800,166.443 77.110,166.271 76.937 C 166.193 76.860,165.639 77.697,165.040 78.798 M228.600 86.400 C 228.941 87.060,229.311 87.600,229.421 87.600 C 229.531 87.600,229.341 87.060,229.000 86.400 C 228.659 85.740,228.289 85.200,228.179 85.200 C 228.069 85.200,228.259 85.740,228.600 86.400 M160.200 88.000 C 159.643 89.100,159.277 90.000,159.387 90.000 C 159.497 90.000,160.043 89.100,160.600 88.000 C 161.157 86.900,161.523 86.000,161.413 86.000 C 161.303 86.000,160.757 86.900,160.200 88.000 M156.000 96.000 C 155.115 97.760,154.481 99.200,154.591 99.200 C 154.701 99.200,155.515 97.760,156.400 96.000 C 157.285 94.240,157.919 92.800,157.809 92.800 C 157.699 92.800,156.885 94.240,156.000 96.000 M233.200 95.200 C 233.649 96.080,234.106 96.800,234.216 96.800 C 234.326 96.800,234.049 96.080,233.600 95.200 C 233.151 94.320,232.694 93.600,232.584 93.600 C 232.474 93.600,232.751 94.320,233.200 95.200 M151.400 104.800 C 150.843 105.900,150.477 106.800,150.587 106.800 C 150.697 106.800,151.243 105.900,151.800 104.800 C 152.357 103.700,152.723 102.800,152.613 102.800 C 152.503 102.800,151.957 103.700,151.400 104.800 M238.200 104.800 C 238.541 105.460,238.911 106.000,239.021 106.000 C 239.131 106.000,238.941 105.460,238.600 104.800 C 238.259 104.140,237.889 103.600,237.779 103.600 C 237.669 103.600,237.859 104.140,238.200 104.800 M148.231 110.783 C 147.203 112.772,146.451 114.400,146.559 114.400 C 146.823 114.400,150.408 107.475,150.235 107.301 C 150.160 107.227,149.258 108.793,148.231 110.783 M240.800 109.709 C 240.800 110.082,243.256 114.548,243.709 115.000 C 243.930 115.220,243.441 114.140,242.622 112.600 C 241.118 109.772,240.800 109.268,240.800 109.709 M143.800 119.200 C 143.459 119.860,143.269 120.400,143.379 120.400 C 143.489 120.400,143.859 119.860,144.200 119.200 C 144.541 118.540,144.731 118.000,144.621 118.000 C 144.511 118.000,144.141 118.540,143.800 119.200 M247.800 123.200 C 248.576 124.740,249.300 126.000,249.410 126.000 C 249.520 126.000,248.976 124.740,248.200 123.200 C 247.424 121.660,246.700 120.400,246.590 120.400 C 246.480 120.400,247.024 121.660,247.800 123.200 M139.820 126.904 C 138.983 128.497,138.478 129.620,138.696 129.400 C 139.265 128.826,141.658 124.324,141.485 124.152 C 141.406 124.073,140.657 125.311,139.820 126.904 M251.206 129.650 C 251.197 130.005,253.233 133.600,253.442 133.600 C 253.538 133.600,253.260 132.925,252.824 132.100 C 251.878 130.311,251.215 129.306,251.206 129.650 M134.600 136.800 C 134.043 137.900,133.677 138.800,133.787 138.800 C 133.897 138.800,134.443 137.900,135.000 136.800 C 135.557 135.700,135.923 134.800,135.813 134.800 C 135.703 134.800,135.157 135.700,134.600 136.800 M257.400 141.600 C 258.176 143.140,258.900 144.400,259.010 144.400 C 259.120 144.400,258.576 143.140,257.800 141.600 C 257.024 140.060,256.300 138.800,256.190 138.800 C 256.080 138.800,256.624 140.060,257.400 141.600 M131.440 142.798 C 130.840 143.899,130.436 144.800,130.541 144.800 C 130.808 144.800,132.843 141.110,132.671 140.937 C 132.593 140.860,132.039 141.697,131.440 142.798 M260.874 148.200 C 260.953 148.420,261.551 149.647,262.205 150.926 L 263.392 153.252 262.106 155.703 C 261.399 157.051,260.883 158.216,260.959 158.292 C 261.035 158.368,261.697 157.274,262.430 155.860 L 263.762 153.290 263.045 151.700 C 262.391 150.249,260.538 147.263,260.874 148.200 M126.600 152.000 C 126.043 153.100,125.677 154.000,125.787 154.000 C 125.897 154.000,126.443 153.100,127.000 152.000 C 127.557 150.900,127.923 150.000,127.813 150.000 C 127.703 150.000,127.157 150.900,126.600 152.000 M121.840 161.198 C 121.240 162.299,120.836 163.200,120.941 163.200 C 121.208 163.200,123.243 159.510,123.071 159.337 C 122.993 159.260,122.439 160.097,121.840 161.198 M257.800 164.000 C 257.243 165.100,256.877 166.000,256.987 166.000 C 257.097 166.000,257.643 165.100,258.200 164.000 C 258.757 162.900,259.123 162.000,259.013 162.000 C 258.903 162.000,258.357 162.900,257.800 164.000 M117.800 168.800 C 117.243 169.900,116.877 170.800,116.987 170.800 C 117.097 170.800,117.643 169.900,118.200 168.800 C 118.757 167.700,119.123 166.800,119.013 166.800 C 118.903 166.800,118.357 167.700,117.800 168.800 M252.634 173.874 C 251.853 175.344,251.276 176.609,251.352 176.685 C 251.427 176.761,252.154 175.557,252.966 174.011 C 253.779 172.465,254.356 171.200,254.249 171.200 C 254.141 171.200,253.415 172.403,252.634 173.874 M114.234 175.589 C 113.421 177.135,112.844 178.400,112.951 178.400 C 113.216 178.400,116.022 173.088,115.848 172.915 C 115.773 172.839,115.046 174.043,114.234 175.589 M248.200 182.400 C 247.643 183.500,247.277 184.400,247.387 184.400 C 247.497 184.400,248.043 183.500,248.600 182.400 C 249.157 181.300,249.523 180.400,249.413 180.400 C 249.303 180.400,248.757 181.300,248.200 182.400 M109.800 184.000 C 109.243 185.100,108.877 186.000,108.987 186.000 C 109.097 186.000,109.643 185.100,110.200 184.000 C 110.757 182.900,111.123 182.000,111.013 182.000 C 110.903 182.000,110.357 182.900,109.800 184.000 M280.432 191.200 C 279.729 192.520,279.251 193.600,279.370 193.600 C 279.489 193.600,280.036 192.713,280.586 191.628 C 281.854 189.125,282.322 188.848,283.266 190.042 L 284.022 191.000 283.547 189.900 C 282.790 188.147,281.850 188.540,280.432 191.200 M105.840 191.598 C 105.240 192.699,104.836 193.600,104.941 193.600 C 105.208 193.600,107.243 189.910,107.071 189.737 C 106.993 189.660,106.439 190.497,105.840 191.598 M243.034 192.274 C 242.253 193.744,241.676 195.009,241.752 195.085 C 241.827 195.161,242.554 193.957,243.366 192.411 C 244.179 190.865,244.756 189.600,244.649 189.600 C 244.541 189.600,243.815 190.803,243.034 192.274 M285.672 194.600 C 285.967 195.484,288.425 200.000,288.612 200.000 C 288.836 200.000,286.681 195.733,285.986 194.800 C 285.740 194.470,285.599 194.380,285.672 194.600 M276.200 199.200 C 275.643 200.300,275.277 201.200,275.387 201.200 C 275.497 201.200,276.043 200.300,276.600 199.200 C 277.157 198.100,277.523 197.200,277.413 197.200 C 277.303 197.200,276.757 198.100,276.200 199.200 M239.000 200.000 C 238.659 200.660,238.469 201.200,238.579 201.200 C 238.689 201.200,239.059 200.660,239.400 200.000 C 239.741 199.340,239.931 198.800,239.821 198.800 C 239.711 198.800,239.341 199.340,239.000 200.000 M100.200 202.400 C 99.643 203.500,99.277 204.400,99.387 204.400 C 99.497 204.400,100.043 203.500,100.600 202.400 C 101.157 201.300,101.523 200.400,101.413 200.400 C 101.303 200.400,100.757 201.300,100.200 202.400 M291.400 205.600 C 291.957 206.700,292.503 207.600,292.613 207.600 C 292.723 207.600,292.357 206.700,291.800 205.600 C 291.243 204.500,290.697 203.600,290.587 203.600 C 290.477 203.600,290.843 204.500,291.400 205.600 M271.834 207.589 C 271.021 209.135,270.444 210.400,270.551 210.400 C 270.816 210.400,273.622 205.088,273.448 204.915 C 273.373 204.839,272.646 206.043,271.834 207.589 M96.634 209.189 C 95.821 210.735,95.244 212.000,95.351 212.000 C 95.616 212.000,98.422 206.688,98.248 206.515 C 98.173 206.439,97.446 207.643,96.634 209.189 M234.000 209.600 C 233.551 210.480,233.274 211.200,233.384 211.200 C 233.494 211.200,233.951 210.480,234.400 209.600 C 234.849 208.720,235.126 208.000,235.016 208.000 C 234.906 208.000,234.449 208.720,234.000 209.600 M295.200 212.909 C 295.200 213.282,297.656 217.748,298.109 218.200 C 298.330 218.420,297.841 217.340,297.022 215.800 C 295.518 212.972,295.200 212.468,295.200 212.909 M267.781 215.237 C 267.429 215.918,267.212 216.545,267.299 216.632 C 267.386 216.719,267.756 216.162,268.122 215.395 C 268.944 213.670,268.659 213.538,267.781 215.237 M229.400 218.400 C 228.624 219.940,228.080 221.200,228.190 221.200 C 228.300 221.200,229.024 219.940,229.800 218.400 C 230.576 216.860,231.120 215.600,231.010 215.600 C 230.900 215.600,230.176 216.860,229.400 218.400 M91.800 218.400 C 91.459 219.060,91.269 219.600,91.379 219.600 C 91.489 219.600,91.859 219.060,92.200 218.400 C 92.541 217.740,92.731 217.200,92.621 217.200 C 92.511 217.200,92.141 217.740,91.800 218.400 M266.200 218.400 C 265.859 219.060,265.669 219.600,265.779 219.600 C 265.889 219.600,266.259 219.060,266.600 218.400 C 266.941 217.740,267.131 217.200,267.021 217.200 C 266.911 217.200,266.541 217.740,266.200 218.400 M87.820 226.104 C 86.983 227.697,86.478 228.820,86.696 228.600 C 87.265 228.026,89.658 223.524,89.485 223.352 C 89.406 223.273,88.657 224.511,87.820 226.104 M262.640 225.198 C 262.040 226.299,261.636 227.200,261.741 227.200 C 262.008 227.200,264.043 223.510,263.871 223.337 C 263.793 223.260,263.239 224.097,262.640 225.198 M224.634 227.474 C 223.853 228.944,223.276 230.209,223.352 230.285 C 223.427 230.361,224.154 229.157,224.966 227.611 C 225.779 226.065,226.356 224.800,226.249 224.800 C 226.141 224.800,225.415 226.003,224.634 227.474 M303.000 228.000 C 303.341 228.660,303.711 229.200,303.821 229.200 C 303.931 229.200,303.741 228.660,303.400 228.000 C 303.059 227.340,302.689 226.800,302.579 226.800 C 302.469 226.800,302.659 227.340,303.000 228.000 M305.674 233.000 C 305.993 233.950,310.026 241.600,310.207 241.600 C 310.433 241.600,306.678 234.126,305.987 233.200 C 305.741 232.870,305.600 232.780,305.674 233.000 M82.620 235.960 C 82.052 237.082,81.664 238.000,81.759 238.000 C 82.051 238.000,84.023 234.290,83.833 234.099 C 83.734 234.001,83.189 234.838,82.620 235.960 M220.200 236.000 C 219.643 237.100,219.277 238.000,219.387 238.000 C 219.497 238.000,220.043 237.100,220.600 236.000 C 221.157 234.900,221.523 234.000,221.413 234.000 C 221.303 234.000,220.757 234.900,220.200 236.000 M257.000 236.000 C 256.443 237.100,256.077 238.000,256.187 238.000 C 256.297 238.000,256.843 237.100,257.400 236.000 C 257.957 234.900,258.323 234.000,258.213 234.000 C 258.103 234.000,257.557 234.900,257.000 236.000 M79.020 242.904 C 78.183 244.497,77.678 245.620,77.896 245.400 C 78.465 244.826,80.858 240.324,80.685 240.152 C 80.606 240.073,79.857 241.311,79.020 242.904 M252.620 244.504 C 251.783 246.097,251.278 247.220,251.496 247.000 C 252.065 246.426,254.458 241.924,254.285 241.752 C 254.206 241.673,253.457 242.911,252.620 244.504 M215.600 244.800 C 215.151 245.680,214.874 246.400,214.984 246.400 C 215.094 246.400,215.551 245.680,216.000 244.800 C 216.449 243.920,216.726 243.200,216.616 243.200 C 216.506 243.200,216.049 243.920,215.600 244.800 M313.000 247.200 C 313.557 248.300,314.103 249.200,314.213 249.200 C 314.323 249.200,313.957 248.300,313.400 247.200 C 312.843 246.100,312.297 245.200,312.187 245.200 C 312.077 245.200,312.443 246.100,313.000 247.200 M73.800 252.800 C 73.243 253.900,72.877 254.800,72.987 254.800 C 73.097 254.800,73.643 253.900,74.200 252.800 C 74.757 251.700,75.123 250.800,75.013 250.800 C 74.903 250.800,74.357 251.700,73.800 252.800 M211.000 253.600 C 210.659 254.260,210.469 254.800,210.579 254.800 C 210.689 254.800,211.059 254.260,211.400 253.600 C 211.741 252.940,211.931 252.400,211.821 252.400 C 211.711 252.400,211.341 252.940,211.000 253.600 M246.600 256.000 C 245.606 257.980,244.882 259.600,244.992 259.600 C 245.102 259.600,246.006 257.980,247.000 256.000 C 247.994 254.020,248.718 252.400,248.608 252.400 C 248.498 252.400,247.594 254.020,246.600 256.000 M316.806 254.450 C 316.797 254.805,318.833 258.400,319.042 258.400 C 319.138 258.400,318.860 257.725,318.424 256.900 C 317.478 255.111,316.815 254.106,316.806 254.450 M68.634 262.789 C 67.821 264.335,67.244 265.600,67.351 265.600 C 67.616 265.600,70.422 260.288,70.248 260.115 C 70.173 260.039,69.446 261.243,68.634 262.789 M206.160 262.877 C 205.797 263.580,205.153 264.771,204.730 265.524 C 204.307 266.278,204.028 266.961,204.110 267.043 C 204.192 267.125,204.928 265.934,205.746 264.396 C 206.564 262.858,207.141 261.600,207.027 261.600 C 206.914 261.600,206.523 262.175,206.160 262.877 M241.840 265.198 C 241.240 266.299,240.836 267.200,240.941 267.200 C 241.208 267.200,243.243 263.510,243.071 263.337 C 242.993 263.260,242.439 264.097,241.840 265.198 M325.000 270.400 C 325.557 271.500,326.103 272.400,326.213 272.400 C 326.323 272.400,325.957 271.500,325.400 270.400 C 324.843 269.300,324.297 268.400,324.187 268.400 C 324.077 268.400,324.443 269.300,325.000 270.400 M201.400 272.000 C 200.624 273.540,200.080 274.800,200.190 274.800 C 200.300 274.800,201.024 273.540,201.800 272.000 C 202.576 270.460,203.120 269.200,203.010 269.200 C 202.900 269.200,202.176 270.460,201.400 272.000 M63.800 272.000 C 63.459 272.660,63.269 273.200,63.379 273.200 C 63.489 273.200,63.859 272.660,64.200 272.000 C 64.541 271.340,64.731 270.800,64.621 270.800 C 64.511 270.800,64.141 271.340,63.800 272.000 M237.400 273.600 C 236.624 275.140,236.080 276.400,236.190 276.400 C 236.300 276.400,237.024 275.140,237.800 273.600 C 238.576 272.060,239.120 270.800,239.010 270.800 C 238.900 270.800,238.176 272.060,237.400 273.600 M326.950 273.800 C 327.274 274.460,327.831 275.360,328.189 275.800 C 328.797 276.548,328.801 276.522,328.250 275.400 C 327.926 274.740,327.369 273.840,327.011 273.400 C 326.403 272.652,326.399 272.678,326.950 273.800 M61.031 277.183 C 60.003 279.172,59.251 280.800,59.359 280.800 C 59.623 280.800,63.208 273.875,63.035 273.701 C 62.960 273.627,62.058 275.193,61.031 277.183 M328.806 276.851 C 328.797 277.224,332.047 283.334,332.502 283.800 C 332.717 284.020,332.152 282.760,331.248 281.000 C 329.505 277.611,328.816 276.440,328.806 276.851 M196.634 281.074 C 195.853 282.544,195.276 283.809,195.352 283.885 C 195.427 283.961,196.154 282.757,196.966 281.211 C 197.779 279.665,198.356 278.400,198.249 278.400 C 198.141 278.400,197.415 279.603,196.634 281.074 M231.834 284.389 C 231.021 285.935,230.444 287.200,230.551 287.200 C 230.816 287.200,233.622 281.888,233.448 281.715 C 233.373 281.639,232.646 282.843,231.834 284.389 M192.200 289.600 C 191.643 290.700,191.277 291.600,191.387 291.600 C 191.497 291.600,192.043 290.700,192.600 289.600 C 193.157 288.500,193.523 287.600,193.413 287.600 C 193.303 287.600,192.757 288.500,192.200 289.600 M335.400 289.600 C 335.957 290.700,336.503 291.600,336.613 291.600 C 336.723 291.600,336.357 290.700,335.800 289.600 C 335.243 288.500,334.697 287.600,334.587 287.600 C 334.477 287.600,334.843 288.500,335.400 289.600 M228.200 291.200 C 227.643 292.300,227.277 293.200,227.387 293.200 C 227.497 293.200,228.043 292.300,228.600 291.200 C 229.157 290.100,229.523 289.200,229.413 289.200 C 229.303 289.200,228.757 290.100,228.200 291.200 M51.034 296.389 C 50.221 297.935,49.644 299.200,49.751 299.200 C 50.016 299.200,52.822 293.888,52.648 293.715 C 52.573 293.639,51.846 294.843,51.034 296.389 M338.473 295.400 C 338.783 296.323,342.026 302.400,342.209 302.400 C 342.434 302.400,339.479 296.528,338.787 295.600 C 338.540 295.270,338.399 295.180,338.473 295.400 M187.428 298.661 C 186.856 299.684,186.452 300.585,186.529 300.663 C 186.607 300.740,187.161 299.903,187.760 298.802 C 188.360 297.701,188.764 296.800,188.659 296.800 C 188.554 296.800,188.000 297.637,187.428 298.661 M222.234 302.789 C 221.421 304.335,220.844 305.600,220.951 305.600 C 221.216 305.600,224.022 300.288,223.848 300.115 C 223.773 300.039,223.046 301.243,222.234 302.789 M45.800 306.400 C 45.243 307.500,44.877 308.400,44.987 308.400 C 45.097 308.400,45.643 307.500,46.200 306.400 C 46.757 305.300,47.123 304.400,47.013 304.400 C 46.903 304.400,46.357 305.300,45.800 306.400 M183.400 306.400 C 182.843 307.500,182.477 308.400,182.587 308.400 C 182.697 308.400,183.243 307.500,183.800 306.400 C 184.357 305.300,184.723 304.400,184.613 304.400 C 184.503 304.400,183.957 305.300,183.400 306.400 M345.800 309.600 C 346.794 311.580,347.698 313.200,347.808 313.200 C 347.918 313.200,347.194 311.580,346.200 309.600 C 345.206 307.620,344.302 306.000,344.192 306.000 C 344.082 306.000,344.806 307.620,345.800 309.600 M41.040 315.598 C 40.440 316.699,40.036 317.600,40.141 317.600 C 40.408 317.600,42.443 313.910,42.271 313.737 C 42.193 313.660,41.639 314.497,41.040 315.598 M178.960 314.877 C 178.597 315.580,177.953 316.771,177.530 317.524 C 177.107 318.278,176.828 318.961,176.910 319.043 C 176.992 319.125,177.728 317.934,178.546 316.396 C 179.364 314.858,179.941 313.600,179.827 313.600 C 179.714 313.600,179.323 314.175,178.960 314.877 M215.380 316.040 C 214.811 317.162,214.413 318.147,214.495 318.229 C 214.577 318.311,215.127 317.393,215.718 316.189 C 216.308 314.985,216.706 314.000,216.602 314.000 C 216.498 314.000,215.948 314.918,215.380 316.040 M349.672 317.000 C 349.967 317.884,352.425 322.400,352.612 322.400 C 352.836 322.400,350.681 318.133,349.986 317.200 C 349.740 316.870,349.599 316.780,349.672 317.000 M214.765 320.508 C 215.417 322.222,223.655 338.478,223.798 338.332 C 223.921 338.205,214.915 319.999,214.536 319.608 C 214.434 319.503,214.537 319.908,214.765 320.508 M174.200 324.000 C 173.424 325.540,172.880 326.800,172.990 326.800 C 173.100 326.800,173.824 325.540,174.600 324.000 C 175.376 322.460,175.920 321.200,175.810 321.200 C 175.700 321.200,174.976 322.460,174.200 324.000 M36.600 324.000 C 36.259 324.660,36.069 325.200,36.179 325.200 C 36.289 325.200,36.659 324.660,37.000 324.000 C 37.341 323.340,37.531 322.800,37.421 322.800 C 37.311 322.800,36.941 323.340,36.600 324.000 M32.226 332.504 C 31.173 334.537,30.491 336.020,30.711 335.800 C 31.262 335.249,34.456 329.122,34.282 328.949 C 34.205 328.872,33.280 330.472,32.226 332.504 M357.400 332.000 C 358.176 333.540,358.900 334.800,359.010 334.800 C 359.120 334.800,358.576 333.540,357.800 332.000 C 357.024 330.460,356.300 329.200,356.190 329.200 C 356.080 329.200,356.624 330.460,357.400 332.000 M169.434 333.074 C 168.653 334.544,168.076 335.809,168.152 335.885 C 168.227 335.961,168.954 334.757,169.766 333.211 C 170.579 331.665,171.156 330.400,171.049 330.400 C 170.941 330.400,170.215 331.603,169.434 333.074 M360.873 338.600 C 361.183 339.523,364.426 345.600,364.609 345.600 C 364.834 345.600,361.879 339.728,361.187 338.800 C 360.940 338.470,360.799 338.380,360.873 338.600 M165.000 341.600 C 164.443 342.700,164.077 343.600,164.187 343.600 C 164.297 343.600,164.843 342.700,165.400 341.600 C 165.957 340.500,166.323 339.600,166.213 339.600 C 166.103 339.600,165.557 340.500,165.000 341.600 M27.000 342.400 C 26.659 343.060,26.469 343.600,26.579 343.600 C 26.689 343.600,27.059 343.060,27.400 342.400 C 27.741 341.740,27.931 341.200,27.821 341.200 C 27.711 341.200,27.341 341.740,27.000 342.400 M227.000 344.800 C 227.341 345.460,227.711 346.000,227.821 346.000 C 227.931 346.000,227.741 345.460,227.400 344.800 C 227.059 344.140,226.689 343.600,226.579 343.600 C 226.469 343.600,226.659 344.140,227.000 344.800 M23.465 349.152 C 22.879 350.228,22.403 351.264,22.407 351.454 C 22.411 351.644,22.952 350.825,23.608 349.634 C 24.265 348.443,24.741 347.407,24.666 347.332 C 24.591 347.257,24.050 348.076,23.465 349.152 M160.228 350.661 C 159.656 351.684,159.252 352.585,159.329 352.663 C 159.407 352.740,159.961 351.903,160.560 350.802 C 161.160 349.701,161.564 348.800,161.459 348.800 C 161.354 348.800,160.800 349.637,160.228 350.661 M367.000 350.400 C 367.341 351.060,367.711 351.600,367.821 351.600 C 367.931 351.600,367.741 351.060,367.400 350.400 C 367.059 349.740,366.689 349.200,366.579 349.200 C 366.469 349.200,366.659 349.740,367.000 350.400 M231.820 353.896 C 232.657 355.489,233.406 356.727,233.485 356.648 C 233.658 356.476,231.265 351.974,230.696 351.400 C 230.478 351.180,230.983 352.303,231.820 353.896 M156.200 358.400 C 155.643 359.500,155.277 360.400,155.387 360.400 C 155.497 360.400,156.043 359.500,156.600 358.400 C 157.157 357.300,157.523 356.400,157.413 356.400 C 157.303 356.400,156.757 357.300,156.200 358.400 M371.206 358.451 C 371.197 358.824,374.447 364.934,374.902 365.400 C 375.117 365.620,374.552 364.360,373.648 362.600 C 371.905 359.211,371.216 358.040,371.206 358.451 M17.800 360.800 C 17.243 361.900,16.877 362.800,16.987 362.800 C 17.097 362.800,17.643 361.900,18.200 360.800 C 18.757 359.700,19.123 358.800,19.013 358.800 C 18.903 358.800,18.357 359.700,17.800 360.800 M236.200 362.400 C 236.757 363.500,237.303 364.400,237.413 364.400 C 237.523 364.400,237.157 363.500,236.600 362.400 C 236.043 361.300,235.497 360.400,235.387 360.400 C 235.277 360.400,235.643 361.300,236.200 362.400 M15.450 366.050 C 14.921 368.697,15.159 373.499,15.833 373.757 C 16.181 373.891,46.106 373.956,82.333 373.902 L 148.200 373.804 82.000 373.602 L 15.800 373.400 15.818 369.100 C 15.838 364.390,15.817 364.216,15.450 366.050 M151.600 367.200 C 151.151 368.080,150.874 368.800,150.984 368.800 C 151.094 368.800,151.551 368.080,152.000 367.200 C 152.449 366.320,152.726 365.600,152.616 365.600 C 152.506 365.600,152.049 366.320,151.600 367.200 M375.200 366.150 C 375.200 366.441,377.271 370.000,377.441 370.000 C 377.536 370.000,377.157 369.100,376.600 368.000 C 375.731 366.286,375.200 365.583,375.200 366.150 M241.000 371.600 C 241.557 372.700,242.103 373.600,242.213 373.600 C 242.323 373.600,241.957 372.700,241.400 371.600 C 240.843 370.500,240.297 369.600,240.187 369.600 C 240.077 369.600,240.443 370.500,241.000 371.600 M378.432 372.699 L 378.400 373.598 310.500 373.700 L 242.600 373.802 310.513 373.901 C 382.634 374.006,379.380 374.082,378.669 372.313 C 378.556 372.031,378.449 372.204,378.432 372.699 " stroke="none" fill="#9d9d9d" fill-rule="evenodd"></path><path id="path3" d="M15.742 369.800 C 15.741 371.780,15.808 372.640,15.892 371.712 C 15.976 370.784,15.977 369.164,15.895 368.112 C 15.812 367.060,15.743 367.820,15.742 369.800 " stroke="none" fill="#7c7c7c" fill-rule="evenodd"></path><path id="path4" d="M193.400 26.000 C 193.059 26.660,192.869 27.200,192.979 27.200 C 193.089 27.200,193.459 26.660,193.800 26.000 C 194.141 25.340,194.331 24.800,194.221 24.800 C 194.111 24.800,193.741 25.340,193.400 26.000 M196.600 26.800 C 196.941 27.460,197.311 28.000,197.421 28.000 C 197.531 28.000,197.341 27.460,197.000 26.800 C 196.659 26.140,196.289 25.600,196.179 25.600 C 196.069 25.600,196.259 26.140,196.600 26.800 M190.200 32.000 C 189.859 32.660,189.669 33.200,189.779 33.200 C 189.889 33.200,190.259 32.660,190.600 32.000 C 190.941 31.340,191.131 30.800,191.021 30.800 C 190.911 30.800,190.541 31.340,190.200 32.000 M201.960 36.600 C 202.634 37.905,203.188 38.628,203.185 38.200 C 203.183 37.980,202.814 37.350,202.364 36.800 C 201.821 36.136,201.685 36.069,201.960 36.600 M204.600 41.600 C 204.941 42.260,205.311 42.800,205.421 42.800 C 205.531 42.800,205.341 42.260,205.000 41.600 C 204.659 40.940,204.289 40.400,204.179 40.400 C 204.069 40.400,204.259 40.940,204.600 41.600 M183.000 45.600 C 182.659 46.260,182.469 46.800,182.579 46.800 C 182.689 46.800,183.059 46.260,183.400 45.600 C 183.741 44.940,183.931 44.400,183.821 44.400 C 183.711 44.400,183.341 44.940,183.000 45.600 M176.600 57.600 C 176.259 58.260,176.069 58.800,176.179 58.800 C 176.289 58.800,176.659 58.260,177.000 57.600 C 177.341 56.940,177.531 56.400,177.421 56.400 C 177.311 56.400,176.941 56.940,176.600 57.600 M219.800 70.400 C 220.141 71.060,220.511 71.600,220.621 71.600 C 220.731 71.600,220.541 71.060,220.200 70.400 C 219.859 69.740,219.489 69.200,219.379 69.200 C 219.269 69.200,219.459 69.740,219.800 70.400 M167.800 74.400 C 167.459 75.060,167.269 75.600,167.379 75.600 C 167.489 75.600,167.859 75.060,168.200 74.400 C 168.541 73.740,168.731 73.200,168.621 73.200 C 168.511 73.200,168.141 73.740,167.800 74.400 M163.800 82.000 C 163.459 82.660,163.269 83.200,163.379 83.200 C 163.489 83.200,163.859 82.660,164.200 82.000 C 164.541 81.340,164.731 80.800,164.621 80.800 C 164.511 80.800,164.141 81.340,163.800 82.000 M234.200 98.000 C 234.541 98.660,234.911 99.200,235.021 99.200 C 235.131 99.200,234.941 98.660,234.600 98.000 C 234.259 97.340,233.889 96.800,233.779 96.800 C 233.669 96.800,233.859 97.340,234.200 98.000 M239.000 107.200 C 239.341 107.860,239.711 108.400,239.821 108.400 C 239.931 108.400,239.741 107.860,239.400 107.200 C 239.059 106.540,238.689 106.000,238.579 106.000 C 238.469 106.000,238.659 106.540,239.000 107.200 M243.800 116.400 C 244.141 117.060,244.511 117.600,244.621 117.600 C 244.731 117.600,244.541 117.060,244.200 116.400 C 243.859 115.740,243.489 115.200,243.379 115.200 C 243.269 115.200,243.459 115.740,243.800 116.400 M143.800 120.000 C 143.459 120.660,143.269 121.200,143.379 121.200 C 143.489 121.200,143.859 120.660,144.200 120.000 C 144.541 119.340,144.731 118.800,144.621 118.800 C 144.511 118.800,144.141 119.340,143.800 120.000 M248.600 125.600 C 248.941 126.260,249.311 126.800,249.421 126.800 C 249.531 126.800,249.341 126.260,249.000 125.600 C 248.659 124.940,248.289 124.400,248.179 124.400 C 248.069 124.400,248.259 124.940,248.600 125.600 M253.400 134.800 C 253.741 135.460,254.111 136.000,254.221 136.000 C 254.331 136.000,254.141 135.460,253.800 134.800 C 253.459 134.140,253.089 133.600,252.979 133.600 C 252.869 133.600,253.059 134.140,253.400 134.800 M258.200 144.000 C 258.541 144.660,258.911 145.200,259.021 145.200 C 259.131 145.200,258.941 144.660,258.600 144.000 C 258.259 143.340,257.889 142.800,257.779 142.800 C 257.669 142.800,257.859 143.340,258.200 144.000 M262.600 153.200 C 262.600 153.818,262.735 154.240,262.900 154.138 C 263.065 154.036,263.200 153.614,263.200 153.200 C 263.200 152.786,263.065 152.364,262.900 152.262 C 262.735 152.160,262.600 152.582,262.600 153.200 M125.400 155.200 C 125.059 155.860,124.869 156.400,124.979 156.400 C 125.089 156.400,125.459 155.860,125.800 155.200 C 126.141 154.540,126.331 154.000,126.221 154.000 C 126.111 154.000,125.741 154.540,125.400 155.200 M258.200 162.400 C 257.859 163.060,257.669 163.600,257.779 163.600 C 257.889 163.600,258.259 163.060,258.600 162.400 C 258.941 161.740,259.131 161.200,259.021 161.200 C 258.911 161.200,258.541 161.740,258.200 162.400 M113.400 178.000 C 113.059 178.660,112.869 179.200,112.979 179.200 C 113.089 179.200,113.459 178.660,113.800 178.000 C 114.141 177.340,114.331 176.800,114.221 176.800 C 114.111 176.800,113.741 177.340,113.400 178.000 M244.600 188.400 C 244.259 189.060,244.069 189.600,244.179 189.600 C 244.289 189.600,244.659 189.060,245.000 188.400 C 245.341 187.740,245.531 187.200,245.421 187.200 C 245.311 187.200,244.941 187.740,244.600 188.400 M283.800 192.000 C 284.141 192.660,284.511 193.200,284.621 193.200 C 284.731 193.200,284.541 192.660,284.200 192.000 C 283.859 191.340,283.489 190.800,283.379 190.800 C 283.269 190.800,283.459 191.340,283.800 192.000 M279.800 193.200 C 279.459 193.860,279.269 194.400,279.379 194.400 C 279.489 194.400,279.859 193.860,280.200 193.200 C 280.541 192.540,280.731 192.000,280.621 192.000 C 280.511 192.000,280.141 192.540,279.800 193.200 M104.200 195.600 C 103.643 196.700,103.277 197.600,103.387 197.600 C 103.497 197.600,104.043 196.700,104.600 195.600 C 105.157 194.500,105.523 193.600,105.413 193.600 C 105.303 193.600,104.757 194.500,104.200 195.600 M239.800 197.600 C 239.459 198.260,239.269 198.800,239.379 198.800 C 239.489 198.800,239.859 198.260,240.200 197.600 C 240.541 196.940,240.731 196.400,240.621 196.400 C 240.511 196.400,240.141 196.940,239.800 197.600 M275.800 200.800 C 275.459 201.460,275.269 202.000,275.379 202.000 C 275.489 202.000,275.859 201.460,276.200 200.800 C 276.541 200.140,276.731 199.600,276.621 199.600 C 276.511 199.600,276.141 200.140,275.800 200.800 M99.800 204.000 C 99.459 204.660,99.269 205.200,99.379 205.200 C 99.489 205.200,99.859 204.660,100.200 204.000 C 100.541 203.340,100.731 202.800,100.621 202.800 C 100.511 202.800,100.141 203.340,99.800 204.000 M235.000 206.800 C 234.659 207.460,234.469 208.000,234.579 208.000 C 234.689 208.000,235.059 207.460,235.400 206.800 C 235.741 206.140,235.931 205.600,235.821 205.600 C 235.711 205.600,235.341 206.140,235.000 206.800 M293.000 209.600 C 293.557 210.700,294.103 211.600,294.213 211.600 C 294.323 211.600,293.957 210.700,293.400 209.600 C 292.843 208.500,292.297 207.600,292.187 207.600 C 292.077 207.600,292.443 208.500,293.000 209.600 M271.000 210.000 C 270.659 210.660,270.469 211.200,270.579 211.200 C 270.689 211.200,271.059 210.660,271.400 210.000 C 271.741 209.340,271.931 208.800,271.821 208.800 C 271.711 208.800,271.341 209.340,271.000 210.000 M230.200 216.000 C 229.859 216.660,229.669 217.200,229.779 217.200 C 229.889 217.200,230.259 216.660,230.600 216.000 C 230.941 215.340,231.131 214.800,231.021 214.800 C 230.911 214.800,230.541 215.340,230.200 216.000 M297.400 218.000 C 297.741 218.660,298.111 219.200,298.221 219.200 C 298.331 219.200,298.141 218.660,297.800 218.000 C 297.459 217.340,297.089 216.800,296.979 216.800 C 296.869 216.800,297.059 217.340,297.400 218.000 M91.800 219.200 C 91.459 219.860,91.269 220.400,91.379 220.400 C 91.489 220.400,91.859 219.860,92.200 219.200 C 92.541 218.540,92.731 218.000,92.621 218.000 C 92.511 218.000,92.141 218.540,91.800 219.200 M225.400 225.200 C 225.059 225.860,224.869 226.400,224.979 226.400 C 225.089 226.400,225.459 225.860,225.800 225.200 C 226.141 224.540,226.331 224.000,226.221 224.000 C 226.111 224.000,225.741 224.540,225.400 225.200 M261.400 228.400 C 261.059 229.060,260.869 229.600,260.979 229.600 C 261.089 229.600,261.459 229.060,261.800 228.400 C 262.141 227.740,262.331 227.200,262.221 227.200 C 262.111 227.200,261.741 227.740,261.400 228.400 M86.200 230.000 C 85.859 230.660,85.669 231.200,85.779 231.200 C 85.889 231.200,86.259 230.660,86.600 230.000 C 86.941 229.340,87.131 228.800,87.021 228.800 C 86.911 228.800,86.541 229.340,86.200 230.000 M220.600 234.400 C 220.259 235.060,220.069 235.600,220.179 235.600 C 220.289 235.600,220.659 235.060,221.000 234.400 C 221.341 233.740,221.531 233.200,221.421 233.200 C 221.311 233.200,220.941 233.740,220.600 234.400 M82.200 237.600 C 81.859 238.260,81.669 238.800,81.779 238.800 C 81.889 238.800,82.259 238.260,82.600 237.600 C 82.941 236.940,83.131 236.400,83.021 236.400 C 82.911 236.400,82.541 236.940,82.200 237.600 M216.600 242.000 C 216.259 242.660,216.069 243.200,216.179 243.200 C 216.289 243.200,216.659 242.660,217.000 242.000 C 217.341 241.340,217.531 240.800,217.421 240.800 C 217.311 240.800,216.941 241.340,216.600 242.000 M77.400 246.800 C 77.059 247.460,76.869 248.000,76.979 248.000 C 77.089 248.000,77.459 247.460,77.800 246.800 C 78.141 246.140,78.331 245.600,78.221 245.600 C 78.111 245.600,77.741 246.140,77.400 246.800 M251.000 248.400 C 250.659 249.060,250.469 249.600,250.579 249.600 C 250.689 249.600,251.059 249.060,251.400 248.400 C 251.741 247.740,251.931 247.200,251.821 247.200 C 251.711 247.200,251.341 247.740,251.000 248.400 M313.400 248.800 C 313.741 249.460,314.111 250.000,314.221 250.000 C 314.331 250.000,314.141 249.460,313.800 248.800 C 313.459 248.140,313.089 247.600,312.979 247.600 C 312.869 247.600,313.059 248.140,313.400 248.800 M73.400 254.400 C 73.059 255.060,72.869 255.600,72.979 255.600 C 73.089 255.600,73.459 255.060,73.800 254.400 C 74.141 253.740,74.331 253.200,74.221 253.200 C 74.111 253.200,73.741 253.740,73.400 254.400 M245.400 259.200 C 245.059 259.860,244.869 260.400,244.979 260.400 C 245.089 260.400,245.459 259.860,245.800 259.200 C 246.141 258.540,246.331 258.000,246.221 258.000 C 246.111 258.000,245.741 258.540,245.400 259.200 M319.000 259.600 C 319.341 260.260,319.711 260.800,319.821 260.800 C 319.931 260.800,319.741 260.260,319.400 259.600 C 319.059 258.940,318.689 258.400,318.579 258.400 C 318.469 258.400,318.659 258.940,319.000 259.600 M207.000 260.400 C 206.659 261.060,206.469 261.600,206.579 261.600 C 206.689 261.600,207.059 261.060,207.400 260.400 C 207.741 259.740,207.931 259.200,207.821 259.200 C 207.711 259.200,207.341 259.740,207.000 260.400 M202.200 269.600 C 201.859 270.260,201.669 270.800,201.779 270.800 C 201.889 270.800,202.259 270.260,202.600 269.600 C 202.941 268.940,203.131 268.400,203.021 268.400 C 202.911 268.400,202.541 268.940,202.200 269.600 M325.400 272.000 C 325.741 272.660,326.111 273.200,326.221 273.200 C 326.331 273.200,326.141 272.660,325.800 272.000 C 325.459 271.340,325.089 270.800,324.979 270.800 C 324.869 270.800,325.059 271.340,325.400 272.000 M235.800 277.600 C 235.459 278.260,235.269 278.800,235.379 278.800 C 235.489 278.800,235.859 278.260,236.200 277.600 C 236.541 276.940,236.731 276.400,236.621 276.400 C 236.511 276.400,236.141 276.940,235.800 277.600 M197.400 278.800 C 197.059 279.460,196.869 280.000,196.979 280.000 C 197.089 280.000,197.459 279.460,197.800 278.800 C 198.141 278.140,198.331 277.600,198.221 277.600 C 198.111 277.600,197.741 278.140,197.400 278.800 M59.000 282.000 C 58.659 282.660,58.469 283.200,58.579 283.200 C 58.689 283.200,59.059 282.660,59.400 282.000 C 59.741 281.340,59.931 280.800,59.821 280.800 C 59.711 280.800,59.341 281.340,59.000 282.000 M55.000 289.600 C 54.659 290.260,54.469 290.800,54.579 290.800 C 54.689 290.800,55.059 290.260,55.400 289.600 C 55.741 288.940,55.931 288.400,55.821 288.400 C 55.711 288.400,55.341 288.940,55.000 289.600 M335.800 291.200 C 336.141 291.860,336.511 292.400,336.621 292.400 C 336.731 292.400,336.541 291.860,336.200 291.200 C 335.859 290.540,335.489 290.000,335.379 290.000 C 335.269 290.000,335.459 290.540,335.800 291.200 M227.800 292.800 C 227.459 293.460,227.269 294.000,227.379 294.000 C 227.489 294.000,227.859 293.460,228.200 292.800 C 228.541 292.140,228.731 291.600,228.621 291.600 C 228.511 291.600,228.141 292.140,227.800 292.800 M188.600 295.600 C 188.259 296.260,188.069 296.800,188.179 296.800 C 188.289 296.800,188.659 296.260,189.000 295.600 C 189.341 294.940,189.531 294.400,189.421 294.400 C 189.311 294.400,188.941 294.940,188.600 295.600 M49.400 300.400 C 49.059 301.060,48.869 301.600,48.979 301.600 C 49.089 301.600,49.459 301.060,49.800 300.400 C 50.141 299.740,50.331 299.200,50.221 299.200 C 50.111 299.200,49.741 299.740,49.400 300.400 M341.400 302.000 C 341.741 302.660,342.111 303.200,342.221 303.200 C 342.331 303.200,342.141 302.660,341.800 302.000 C 341.459 301.340,341.089 300.800,340.979 300.800 C 340.869 300.800,341.059 301.340,341.400 302.000 M183.800 304.800 C 183.459 305.460,183.269 306.000,183.379 306.000 C 183.489 306.000,183.859 305.460,184.200 304.800 C 184.541 304.140,184.731 303.600,184.621 303.600 C 184.511 303.600,184.141 304.140,183.800 304.800 M220.600 306.800 C 220.259 307.460,220.069 308.000,220.179 308.000 C 220.289 308.000,220.659 307.460,221.000 306.800 C 221.341 306.140,221.531 305.600,221.421 305.600 C 221.311 305.600,220.941 306.140,220.600 306.800 M45.000 308.800 C 44.443 309.900,44.077 310.800,44.187 310.800 C 44.297 310.800,44.843 309.900,45.400 308.800 C 45.957 307.700,46.323 306.800,46.213 306.800 C 46.103 306.800,45.557 307.700,45.000 308.800 M347.000 312.800 C 347.341 313.460,347.711 314.000,347.821 314.000 C 347.931 314.000,347.741 313.460,347.400 312.800 C 347.059 312.140,346.689 311.600,346.579 311.600 C 346.469 311.600,346.659 312.140,347.000 312.800 M39.800 318.800 C 39.459 319.460,39.269 320.000,39.379 320.000 C 39.489 320.000,39.859 319.460,40.200 318.800 C 40.541 318.140,40.731 317.600,40.621 317.600 C 40.511 317.600,40.141 318.140,39.800 318.800 M175.000 321.600 C 174.659 322.260,174.469 322.800,174.579 322.800 C 174.689 322.800,175.059 322.260,175.400 321.600 C 175.741 320.940,175.931 320.400,175.821 320.400 C 175.711 320.400,175.341 320.940,175.000 321.600 M352.600 323.600 C 352.941 324.260,353.311 324.800,353.421 324.800 C 353.531 324.800,353.341 324.260,353.000 323.600 C 352.659 322.940,352.289 322.400,352.179 322.400 C 352.069 322.400,352.259 322.940,352.600 323.600 M36.600 324.800 C 36.259 325.460,36.069 326.000,36.179 326.000 C 36.289 326.000,36.659 325.460,37.000 324.800 C 37.341 324.140,37.531 323.600,37.421 323.600 C 37.311 323.600,36.941 324.140,36.600 324.800 M170.200 330.800 C 169.859 331.460,169.669 332.000,169.779 332.000 C 169.889 332.000,170.259 331.460,170.600 330.800 C 170.941 330.140,171.131 329.600,171.021 329.600 C 170.911 329.600,170.541 330.140,170.200 330.800 M359.000 336.000 C 359.341 336.660,359.711 337.200,359.821 337.200 C 359.931 337.200,359.741 336.660,359.400 336.000 C 359.059 335.340,358.689 334.800,358.579 334.800 C 358.469 334.800,358.659 335.340,359.000 336.000 M27.000 343.200 C 26.659 343.860,26.469 344.400,26.579 344.400 C 26.689 344.400,27.059 343.860,27.400 343.200 C 27.741 342.540,27.931 342.000,27.821 342.000 C 27.711 342.000,27.341 342.540,27.000 343.200 M227.000 344.000 C 227.341 344.660,227.711 345.200,227.821 345.200 C 227.931 345.200,227.741 344.660,227.400 344.000 C 227.059 343.340,226.689 342.800,226.579 342.800 C 226.469 342.800,226.659 343.340,227.000 344.000 M161.400 347.600 C 161.059 348.260,160.869 348.800,160.979 348.800 C 161.089 348.800,161.459 348.260,161.800 347.600 C 162.141 346.940,162.331 346.400,162.221 346.400 C 162.111 346.400,161.741 346.940,161.400 347.600 M230.200 350.000 C 230.541 350.660,230.911 351.200,231.021 351.200 C 231.131 351.200,230.941 350.660,230.600 350.000 C 230.259 349.340,229.889 348.800,229.779 348.800 C 229.669 348.800,229.859 349.340,230.200 350.000 M368.200 353.600 C 368.757 354.700,369.303 355.600,369.413 355.600 C 369.523 355.600,369.157 354.700,368.600 353.600 C 368.043 352.500,367.497 351.600,367.387 351.600 C 367.277 351.600,367.643 352.500,368.200 353.600 M156.600 356.800 C 156.259 357.460,156.069 358.000,156.179 358.000 C 156.289 358.000,156.659 357.460,157.000 356.800 C 157.341 356.140,157.531 355.600,157.421 355.600 C 157.311 355.600,156.941 356.140,156.600 356.800 M235.000 359.200 C 235.341 359.860,235.711 360.400,235.821 360.400 C 235.931 360.400,235.741 359.860,235.400 359.200 C 235.059 358.540,234.689 358.000,234.579 358.000 C 234.469 358.000,234.659 358.540,235.000 359.200 M152.600 364.400 C 152.259 365.060,152.069 365.600,152.179 365.600 C 152.289 365.600,152.659 365.060,153.000 364.400 C 153.341 363.740,153.531 363.200,153.421 363.200 C 153.311 363.200,152.941 363.740,152.600 364.400 M377.478 371.395 C 377.844 372.162,378.214 372.719,378.301 372.632 C 378.484 372.449,377.270 370.000,376.996 370.000 C 376.895 370.000,377.112 370.628,377.478 371.395 M148.161 372.799 C 147.900 373.060,124.966 373.233,81.781 373.300 L 15.800 373.402 81.851 373.501 C 140.156 373.588,147.960 373.530,148.400 373.000 C 148.957 372.329,148.780 372.180,148.161 372.799 M276.300 373.500 C 295.055 373.557,325.745 373.557,344.500 373.500 C 363.255 373.442,347.910 373.395,310.400 373.395 C 272.890 373.395,257.545 373.442,276.300 373.500 " stroke="none" fill="#747474" fill-rule="evenodd"></path></g></svg>